<svg xmlns="http://www.w3.org/2000/svg" xmlns:xlink="http://www.w3.org/1999/xlink" width="100" zoomAndPan="magnify" viewBox="0 0 75 74.999997" height="100" preserveAspectRatio="xMidYMid meet" version="1.0"><defs><clipPath id="53921bc385"><path d="M 4.207031 8 L 70.957031 8 L 70.957031 67.160156 L 4.207031 67.160156 Z M 4.207031 8 " clip-rule="nonzero"/></clipPath></defs><rect x="-7.5" width="90" fill="#ffffff" y="-7.5" height="89.999996" fill-opacity="1"/><rect x="-7.5" width="90" fill="#e4067e" y="-7.5" height="89.999996" fill-opacity="1"/><path stroke-linecap="butt" transform="matrix(0, 0.75, -0.75, 0, 1.125001, -0.000001)" fill="none" stroke-linejoin="miter" d="M 0.00000133333 1.500002 L 100.00001 1.500002 " stroke="#000000" stroke-width="3" stroke-opacity="1" stroke-miterlimit="4"/><path stroke-linecap="butt" transform="matrix(0.75, 0, 0, 0.75, 0.0000015, -1.125001)" fill="none" stroke-linejoin="miter" d="M -0.000002 1.500001 L 100.000006 1.500001 " stroke="#000000" stroke-width="3" stroke-opacity="1" stroke-miterlimit="4"/><path stroke-linecap="butt" transform="matrix(0, 0.75, -0.75, 0, 76.124995, -0.000001)" fill="none" stroke-linejoin="miter" d="M 0.00000133333 1.499994 L 100.00001 1.499994 " stroke="#000000" stroke-width="3" stroke-opacity="1" stroke-miterlimit="4"/><path stroke-linecap="butt" transform="matrix(-0.75, 0, 0, -0.75, 74.999995, 76.124993)" fill="none" stroke-linejoin="miter" d="M -0.00000616667 1.49999 L 100.000002 1.49999 " stroke="#000000" stroke-width="3" stroke-opacity="1" stroke-miterlimit="4"/><g clip-path="url(#53921bc385)"><path fill="#000000" d="M 49.5625 44.734375 C 48.96875 44.734375 48.488281 45.210938 48.488281 45.804688 C 48.488281 46.390625 48.96875 46.867188 49.5625 46.867188 C 50.15625 46.867188 50.636719 46.390625 50.636719 45.800781 C 50.636719 45.214844 50.15625 44.734375 49.5625 44.734375 Z M 68.5 55.203125 L 62.699219 49.453125 L 60.992188 51.148438 L 66.792969 56.898438 Z M 57.570312 31.066406 C 61.742188 35.199219 61.742188 41.925781 57.570312 46.0625 C 53.402344 50.195312 46.621094 50.195312 42.449219 46.0625 C 38.28125 41.925781 38.28125 35.199219 42.449219 31.066406 C 46.621094 26.933594 53.40625 26.933594 57.570312 31.066406 Z M 50.734375 51.269531 C 50.039062 52.078125 49.246094 52.816406 48.355469 53.46875 L 34.042969 63.917969 L 34.042969 11.324219 C 39.847656 15.75 46.828125 18.261719 54.011719 18.492188 L 54.011719 26.46875 C 49.558594 25.027344 44.464844 26.058594 40.933594 29.558594 C 35.921875 34.523438 35.921875 42.605469 40.933594 47.570312 C 43.597656 50.210938 47.203125 51.480469 50.734375 51.269531 Z M 31.894531 11.324219 C 26.089844 15.75 19.109375 18.261719 11.921875 18.492188 L 11.921875 25.214844 L 24.398438 25.214844 L 22.363281 23.90625 C 21.867188 23.589844 21.722656 22.925781 22.046875 22.433594 C 22.371094 21.941406 23.035156 21.800781 23.535156 22.117188 L 28.738281 25.480469 C 29.21875 25.878906 29.246094 26.636719 28.722656 27.097656 L 23.535156 30.441406 C 23.039062 30.761719 22.371094 30.625 22.046875 30.128906 C 21.722656 29.632812 21.867188 28.972656 22.363281 28.65625 L 24.398438 27.347656 L 11.921875 27.347656 L 11.921875 37.003906 L 24.398438 37.003906 L 22.363281 35.695312 C 21.867188 35.378906 21.722656 34.714844 22.046875 34.222656 C 22.371094 33.730469 23.035156 33.585938 23.535156 33.90625 L 28.722656 37.253906 C 29.214844 37.652344 29.257812 38.386719 28.722656 38.886719 L 23.535156 42.230469 C 23.039062 42.550781 22.371094 42.414062 22.046875 41.917969 C 21.722656 41.421875 21.867188 40.761719 22.363281 40.441406 L 24.398438 39.136719 L 11.921875 39.136719 L 11.921875 42.050781 C 11.921875 44.511719 12.472656 46.792969 13.523438 48.792969 L 24.398438 48.792969 L 22.363281 47.484375 C 21.867188 47.164062 21.722656 46.507812 22.046875 46.011719 C 22.371094 45.519531 23.035156 45.375 23.535156 45.699219 L 28.722656 49.042969 C 29.347656 49.59375 29.128906 50.464844 28.617188 50.753906 L 23.535156 54.019531 C 23.039062 54.339844 22.371094 54.203125 22.046875 53.707031 C 21.722656 53.210938 21.867188 52.550781 22.363281 52.230469 L 24.398438 50.925781 L 14.914062 50.925781 C 15.667969 51.871094 16.5625 52.722656 17.582031 53.46875 L 31.894531 63.921875 Z M 70.253906 56.480469 L 68.078125 58.640625 C 67.367188 59.34375 66.214844 59.34375 65.507812 58.640625 L 59.238281 52.421875 C 58.527344 51.71875 58.527344 50.578125 59.238281 49.871094 L 59.566406 49.546875 L 58.296875 48.289062 C 56.941406 49.429688 55.398438 50.246094 53.777344 50.734375 C 52.714844 52.453125 51.320312 53.949219 49.628906 55.183594 L 33.605469 66.886719 C 33.226562 67.164062 32.710938 67.164062 32.328125 66.886719 L 16.304688 55.183594 C 14.667969 53.988281 13.316406 52.550781 12.277344 50.925781 L 5.285156 50.925781 C 4.691406 50.925781 4.210938 50.449219 4.210938 49.859375 C 4.210938 49.269531 4.691406 48.792969 5.285156 48.792969 L 11.136719 48.792969 C 10.242188 46.746094 9.773438 44.472656 9.773438 42.050781 L 9.773438 39.136719 L 5.285156 39.136719 C 4.691406 39.136719 4.210938 38.660156 4.210938 38.070312 C 4.210938 37.480469 4.691406 37.003906 5.285156 37.003906 L 9.773438 37.003906 L 9.773438 27.347656 L 5.285156 27.347656 C 4.691406 27.347656 4.210938 26.871094 4.210938 26.28125 C 4.210938 25.691406 4.691406 25.214844 5.285156 25.214844 L 9.773438 25.214844 L 9.773438 17.441406 C 9.773438 16.851562 10.253906 16.375 10.847656 16.375 C 18.644531 16.375 26.246094 13.496094 32.261719 8.273438 C 32.667969 7.917969 33.273438 7.917969 33.679688 8.273438 C 39.691406 13.496094 47.292969 16.375 55.085938 16.375 C 55.679688 16.375 56.160156 16.851562 56.160156 17.441406 L 56.160156 27.386719 C 57.214844 27.957031 58.203125 28.679688 59.09375 29.558594 C 63.84375 34.269531 64.082031 41.785156 59.816406 46.78125 L 61.085938 48.039062 L 61.414062 47.710938 C 62.125 47.011719 63.277344 47.011719 63.984375 47.710938 L 70.253906 53.929688 C 70.964844 54.632812 70.964844 55.777344 70.253906 56.480469 Z M 54.199219 36.363281 C 54.199219 33.824219 52.121094 31.761719 49.5625 31.761719 C 48.238281 31.761719 46.972656 32.328125 46.09375 33.3125 C 45.699219 33.75 45.738281 34.425781 46.183594 34.816406 C 46.628906 35.207031 47.308594 35.167969 47.703125 34.726562 C 49.214844 33.039062 52.050781 34.097656 52.050781 36.363281 C 52.050781 37.414062 51.378906 38.351562 50.375 38.695312 C 49.226562 39.089844 48.488281 40.117188 48.488281 41.320312 L 48.488281 42.742188 C 48.488281 43.328125 48.96875 43.808594 49.5625 43.808594 C 50.15625 43.808594 50.636719 43.328125 50.636719 42.742188 L 50.636719 41.320312 C 50.636719 41.03125 50.800781 40.804688 51.078125 40.710938 C 52.945312 40.070312 54.199219 38.324219 54.199219 36.363281 Z M 54.199219 36.363281 " fill-opacity="1" fill-rule="evenodd"/></g></svg>