<svg xmlns="http://www.w3.org/2000/svg" xmlns:xlink="http://www.w3.org/1999/xlink" width="100" zoomAndPan="magnify" viewBox="0 0 75 74.999997" height="100" preserveAspectRatio="xMidYMid meet" version="1.0"><defs><clipPath id="0bb141d5da"><path d="M 7 4.496094 L 68.304688 4.496094 L 68.304688 70.496094 L 7 70.496094 Z M 7 4.496094 " clip-rule="nonzero"/></clipPath></defs><rect x="-7.5" width="90" fill="#ffffff" y="-7.5" height="89.999996" fill-opacity="1"/><rect x="-7.5" width="90" fill="#e4067e" y="-7.5" height="89.999996" fill-opacity="1"/><path stroke-linecap="butt" transform="matrix(0, 0.75, -0.75, 0, 1.125001, -0.000001)" fill="none" stroke-linejoin="miter" d="M 0.00000133333 1.500002 L 100.00001 1.500002 " stroke="#000000" stroke-width="3" stroke-opacity="1" stroke-miterlimit="4"/><path stroke-linecap="butt" transform="matrix(0.75, 0, 0, 0.75, 0.0000015, -1.125001)" fill="none" stroke-linejoin="miter" d="M -0.000002 1.500001 L 100.000006 1.500001 " stroke="#000000" stroke-width="3" stroke-opacity="1" stroke-miterlimit="4"/><path stroke-linecap="butt" transform="matrix(0, 0.75, -0.75, 0, 76.124995, -0.000001)" fill="none" stroke-linejoin="miter" d="M 0.00000133333 1.499994 L 100.00001 1.499994 " stroke="#000000" stroke-width="3" stroke-opacity="1" stroke-miterlimit="4"/><path stroke-linecap="butt" transform="matrix(-0.75, 0, 0, -0.75, 74.999995, 76.124993)" fill="none" stroke-linejoin="miter" d="M -0.00000616667 1.49999 L 100.000002 1.49999 " stroke="#000000" stroke-width="3" stroke-opacity="1" stroke-miterlimit="4"/><g clip-path="url(#0bb141d5da)"><path fill="#000000" d="M 64.675781 44.609375 C 63.484375 44.292969 62.242188 44.453125 61.179688 45.066406 L 47.332031 53.042969 C 47.390625 52.898438 47.441406 52.746094 47.484375 52.589844 C 48.074219 50.378906 46.753906 48.097656 44.539062 47.503906 L 30.898438 43.855469 C 29.671875 43.464844 28.171875 43.617188 27.066406 44.253906 L 17.582031 49.71875 L 16.796875 48.359375 C 16.429688 47.726562 15.8125 47.257812 15.09375 47.074219 C 14.386719 46.890625 13.65625 46.996094 13.042969 47.371094 L 8.609375 50.070312 C 7.308594 50.859375 6.878906 52.496094 7.628906 53.789062 L 16.492188 69.113281 C 16.859375 69.753906 17.480469 70.222656 18.199219 70.40625 C 18.421875 70.464844 18.652344 70.492188 18.875 70.492188 C 19.359375 70.492188 19.832031 70.363281 20.25 70.105469 L 24.683594 67.40625 C 25.980469 66.613281 26.410156 64.980469 25.664062 63.6875 L 24.878906 62.332031 L 26.222656 61.554688 C 26.835938 61.199219 27.078125 61.207031 28.011719 61.410156 L 41.621094 65.050781 C 42.105469 65.183594 42.597656 65.246094 43.089844 65.246094 C 44.074219 65.246094 45.046875 64.988281 45.925781 64.480469 L 65.785156 53.035156 C 66.851562 52.421875 67.613281 51.433594 67.933594 50.242188 C 68.25 49.050781 68.089844 47.808594 67.476562 46.75 C 66.863281 45.691406 65.871094 44.929688 64.675781 44.609375 Z M 23.707031 65.816406 L 19.277344 68.515625 C 19.097656 68.625 18.878906 68.65625 18.660156 68.601562 C 18.429688 68.542969 18.226562 68.390625 18.109375 68.183594 L 9.242188 52.859375 C 9.003906 52.445312 9.152344 51.921875 9.582031 51.660156 L 14.011719 48.960938 C 14.132812 48.886719 14.273438 48.851562 14.417969 48.851562 C 14.488281 48.851562 14.558594 48.859375 14.632812 48.878906 C 14.863281 48.9375 15.0625 49.089844 15.183594 49.292969 L 24.046875 64.617188 C 24.285156 65.027344 24.136719 65.554688 23.707031 65.816406 Z M 66.128906 49.757812 C 65.9375 50.46875 65.488281 51.058594 64.855469 51.421875 L 44.992188 62.867188 C 44.109375 63.378906 43.082031 63.515625 42.105469 63.253906 L 28.476562 59.605469 C 28.460938 59.605469 28.449219 59.601562 28.433594 59.597656 C 27.320312 59.351562 26.5 59.246094 25.289062 59.941406 L 23.945312 60.71875 L 18.515625 51.332031 L 28 45.867188 C 28.652344 45.492188 29.613281 45.394531 30.339844 45.636719 C 30.355469 45.640625 30.375 45.644531 30.390625 45.648438 L 44.058594 49.304688 C 45.277344 49.628906 46.007812 50.890625 45.679688 52.105469 C 45.359375 53.296875 44.167969 53.976562 42.953125 53.671875 L 32.644531 50.945312 C 32.144531 50.816406 31.632812 51.109375 31.5 51.609375 C 31.371094 52.105469 31.667969 52.613281 32.164062 52.746094 L 42.417969 55.457031 C 42.425781 55.460938 42.433594 55.460938 42.441406 55.464844 L 44.082031 55.898438 C 45.289062 56.214844 45.96875 55.980469 47.542969 55.074219 L 62.113281 46.679688 C 62.746094 46.316406 63.484375 46.21875 64.195312 46.410156 C 64.90625 46.601562 65.496094 47.050781 65.859375 47.683594 C 66.222656 48.3125 66.320312 49.050781 66.128906 49.757812 Z M 14.9375 53.976562 C 15.195312 54.421875 15.039062 54.992188 14.59375 55.25 C 14.449219 55.335938 14.285156 55.375 14.128906 55.375 C 13.804688 55.375 13.492188 55.207031 13.320312 54.910156 L 12.269531 53.097656 C 12.011719 52.652344 12.164062 52.082031 12.609375 51.824219 C 13.058594 51.566406 13.628906 51.71875 13.886719 52.164062 Z M 12.550781 31.25 C 12.945312 31.355469 13.34375 31.40625 13.742188 31.40625 C 14.535156 31.40625 15.316406 31.199219 16.023438 30.792969 C 17.082031 30.183594 17.839844 29.199219 18.15625 28.019531 C 18.175781 27.9375 18.195312 27.851562 18.214844 27.769531 L 31.59375 27.769531 C 31.730469 30.019531 32.078125 32.347656 33.019531 34.394531 C 33.121094 34.617188 33.230469 34.828125 33.34375 35.042969 L 24.003906 35.042969 C 23.753906 35.042969 23.519531 35.140625 23.34375 35.3125 L 21.28125 37.371094 C 19.878906 36.460938 18.027344 36.347656 16.480469 37.238281 C 14.300781 38.496094 13.550781 41.296875 14.808594 43.480469 C 15.65625 44.941406 17.199219 45.757812 18.78125 45.757812 C 19.558594 45.757812 20.34375 45.5625 21.0625 45.148438 C 22.121094 44.539062 22.878906 43.554688 23.195312 42.375 C 23.511719 41.195312 23.347656 39.964844 22.738281 38.90625 C 22.691406 38.832031 22.648438 38.761719 22.601562 38.6875 L 24.390625 36.902344 L 34.570312 36.902344 C 35.75 38.414062 37.152344 39.621094 38.367188 40.574219 C 41.761719 43.234375 45.304688 45.296875 49.054688 47.480469 L 49.316406 47.632812 C 49.464844 47.714844 49.625 47.757812 49.789062 47.757812 C 49.949219 47.757812 50.113281 47.714844 50.257812 47.632812 L 50.523438 47.476562 C 54.273438 45.296875 57.8125 43.234375 61.210938 40.574219 C 63.035156 39.140625 65.289062 37.144531 66.558594 34.394531 C 67.871094 31.539062 68.027344 28.128906 68.074219 25.15625 C 68.125 22.011719 68.058594 18.828125 67.992188 15.746094 C 67.957031 14.003906 67.917969 12.207031 67.902344 10.4375 L 67.886719 8.511719 C 67.882812 8.136719 67.652344 7.796875 67.304688 7.65625 C 64.898438 6.6875 63.105469 6.074219 60.535156 5.625 C 54.105469 4.496094 45.46875 4.496094 39.042969 5.625 C 36.46875 6.074219 34.679688 6.6875 32.273438 7.65625 C 31.921875 7.796875 31.691406 8.136719 31.691406 8.511719 L 31.675781 10.4375 C 31.660156 12.207031 31.621094 14.007812 31.585938 15.75 C 31.578125 16.085938 31.570312 16.425781 31.5625 16.765625 L 24.390625 16.765625 L 22.601562 14.980469 C 22.648438 14.910156 22.691406 14.835938 22.734375 14.761719 C 23.347656 13.707031 23.511719 12.480469 23.195312 11.300781 C 22.878906 10.121094 22.121094 9.136719 21.0625 8.523438 C 20.003906 7.914062 18.769531 7.75 17.589844 8.066406 C 16.40625 8.382812 15.421875 9.136719 14.808594 10.195312 C 13.546875 12.378906 14.296875 15.175781 16.484375 16.433594 C 17.1875 16.84375 17.972656 17.050781 18.765625 17.050781 C 19.164062 17.050781 19.566406 16.996094 19.960938 16.890625 C 20.4375 16.765625 20.882812 16.5625 21.28125 16.300781 L 23.34375 18.355469 C 23.515625 18.53125 23.753906 18.628906 24.003906 18.628906 L 31.527344 18.628906 C 31.488281 20.792969 31.46875 22.984375 31.5 25.15625 C 31.503906 25.402344 31.507812 25.652344 31.515625 25.90625 L 18.214844 25.90625 C 18.117188 25.4375 17.945312 24.976562 17.695312 24.550781 C 16.4375 22.371094 13.632812 21.621094 11.441406 22.878906 C 9.257812 24.140625 8.507812 26.941406 9.769531 29.121094 C 10.382812 30.175781 11.371094 30.933594 12.550781 31.25 Z M 21.390625 41.894531 C 21.203125 42.59375 20.753906 43.175781 20.128906 43.535156 C 18.835938 44.28125 17.171875 43.835938 16.425781 42.546875 C 15.679688 41.253906 16.125 39.597656 17.414062 38.851562 C 17.84375 38.605469 18.308594 38.488281 18.769531 38.488281 C 19.707031 38.488281 20.621094 38.972656 21.121094 39.839844 C 21.484375 40.464844 21.578125 41.195312 21.390625 41.894531 Z M 19.476562 15.09375 C 18.777344 15.28125 18.046875 15.183594 17.417969 14.820312 C 16.121094 14.078125 15.675781 12.417969 16.425781 11.128906 C 16.789062 10.5 17.371094 10.050781 18.074219 9.867188 C 18.304688 9.804688 18.542969 9.773438 18.777344 9.773438 C 19.246094 9.773438 19.710938 9.894531 20.128906 10.136719 C 20.757812 10.5 21.207031 11.082031 21.390625 11.78125 C 21.578125 12.480469 21.484375 13.207031 21.121094 13.832031 C 20.757812 14.457031 20.175781 14.90625 19.476562 15.09375 Z M 33.539062 10.453125 L 33.550781 9.152344 C 35.554688 8.363281 37.164062 7.84375 39.363281 7.457031 C 45.597656 6.363281 53.976562 6.363281 60.210938 7.457031 C 62.414062 7.84375 64.019531 8.363281 66.027344 9.152344 L 66.035156 10.453125 L 66.035156 10.457031 C 66.050781 12.234375 66.089844 14.039062 66.125 15.785156 C 66.191406 18.847656 66.257812 22.019531 66.210938 25.125 C 66.167969 27.910156 66.023438 31.089844 64.863281 33.613281 C 63.761719 36.003906 61.714844 37.804688 60.058594 39.109375 C 56.824219 41.640625 53.40625 43.644531 49.789062 45.75 C 46.171875 43.644531 42.753906 41.640625 39.519531 39.109375 C 37.859375 37.804688 35.816406 36.003906 34.714844 33.617188 C 33.554688 31.089844 33.410156 27.910156 33.367188 25.125 C 33.328125 22.675781 33.363281 20.191406 33.410156 17.746094 C 33.410156 17.730469 33.414062 17.714844 33.414062 17.699219 C 33.414062 17.691406 33.410156 17.683594 33.410156 17.675781 C 33.421875 17.042969 33.4375 16.414062 33.449219 15.789062 C 33.488281 14.039062 33.523438 12.234375 33.539062 10.453125 Z M 12.375 24.492188 C 12.800781 24.246094 13.269531 24.128906 13.726562 24.128906 C 14.667969 24.128906 15.582031 24.617188 16.082031 25.480469 C 16.445312 26.109375 16.539062 26.839844 16.351562 27.535156 C 16.164062 28.234375 15.714844 28.816406 15.089844 29.179688 C 13.796875 29.925781 12.136719 29.480469 11.386719 28.1875 C 10.636719 26.898438 11.085938 25.238281 12.375 24.492188 Z M 37.359375 32.402344 C 38.195312 34.21875 39.828125 35.65625 41.316406 36.824219 C 43.902344 38.851562 46.6875 40.5625 49.3125 42.109375 C 49.460938 42.195312 49.625 42.238281 49.789062 42.238281 C 49.953125 42.238281 50.117188 42.195312 50.261719 42.109375 C 52.890625 40.5625 55.675781 38.851562 58.261719 36.824219 C 59.746094 35.65625 61.382812 34.21875 62.21875 32.402344 C 63.148438 30.382812 63.265625 27.679688 63.300781 25.082031 C 63.347656 22.015625 63.28125 18.90625 63.21875 15.902344 C 63.191406 14.574219 63.164062 13.207031 63.144531 11.859375 C 63.140625 11.453125 62.871094 11.101562 62.484375 10.980469 C 56.078125 9.035156 43.5 9.035156 37.09375 10.980469 C 36.703125 11.101562 36.4375 11.453125 36.429688 11.859375 C 36.414062 13.203125 36.382812 14.574219 36.355469 15.894531 C 36.292969 18.902344 36.230469 22.015625 36.277344 25.082031 C 36.3125 27.679688 36.425781 30.382812 37.359375 32.402344 Z M 38.222656 15.933594 C 38.246094 14.835938 38.269531 13.703125 38.285156 12.578125 C 44.277344 10.996094 55.300781 10.996094 61.289062 12.578125 C 61.308594 13.703125 61.332031 14.835938 61.355469 15.9375 C 61.417969 18.929688 61.480469 22.019531 61.433594 25.054688 C 61.410156 26.828125 61.367188 29.792969 60.523438 31.625 C 59.847656 33.085938 58.34375 34.390625 57.105469 35.359375 C 54.761719 37.199219 52.21875 38.785156 49.789062 40.226562 C 47.359375 38.785156 44.816406 37.199219 42.46875 35.363281 C 41.234375 34.390625 39.730469 33.085938 39.054688 31.625 C 38.210938 29.792969 38.167969 26.828125 38.140625 25.054688 C 38.09375 22.019531 38.160156 18.925781 38.222656 15.933594 Z M 44.316406 33.347656 L 55.261719 33.347656 C 56.640625 33.347656 57.761719 32.230469 57.761719 30.851562 L 57.761719 21.4375 C 57.761719 20.0625 56.640625 18.941406 55.261719 18.941406 L 54.519531 18.941406 L 54.519531 17.871094 C 54.519531 15.269531 52.394531 13.152344 49.789062 13.152344 C 47.179688 13.152344 45.058594 15.269531 45.058594 17.871094 L 45.058594 18.941406 L 44.316406 18.941406 C 42.933594 18.941406 41.8125 20.0625 41.8125 21.4375 L 41.8125 30.851562 C 41.8125 32.230469 42.933594 33.347656 44.316406 33.347656 Z M 46.925781 17.871094 C 46.925781 16.296875 48.210938 15.011719 49.789062 15.011719 C 51.367188 15.011719 52.652344 16.296875 52.652344 17.871094 L 52.652344 18.941406 L 46.925781 18.941406 Z M 43.679688 21.4375 C 43.679688 21.09375 43.96875 20.804688 44.316406 20.804688 L 55.261719 20.804688 C 55.605469 20.804688 55.898438 21.09375 55.898438 21.4375 L 55.898438 30.851562 C 55.898438 31.195312 55.605469 31.484375 55.261719 31.484375 L 44.316406 31.484375 C 43.96875 31.484375 43.679688 31.195312 43.679688 30.851562 Z M 48.011719 24.339844 C 48.011719 23.828125 48.429688 23.410156 48.945312 23.410156 L 50.628906 23.410156 C 51.144531 23.410156 51.5625 23.828125 51.5625 24.339844 C 51.5625 24.824219 51.195312 25.222656 50.722656 25.269531 L 50.722656 27.949219 C 50.722656 28.464844 50.304688 28.878906 49.789062 28.878906 C 49.273438 28.878906 48.855469 28.464844 48.855469 27.949219 L 48.855469 25.269531 C 48.382812 25.222656 48.011719 24.824219 48.011719 24.339844 Z M 48.011719 24.339844 " fill-opacity="1" fill-rule="nonzero"/></g></svg>