<svg xmlns="http://www.w3.org/2000/svg" xmlns:xlink="http://www.w3.org/1999/xlink" width="100" zoomAndPan="magnify" viewBox="0 0 75 74.999997" height="100" preserveAspectRatio="xMidYMid meet" version="1.0"><defs><clipPath id="9b5403e6e6"><path d="M 8.898438 3.75 L 65.898438 3.75 L 65.898438 71.25 L 8.898438 71.25 Z M 8.898438 3.75 " clip-rule="nonzero"/></clipPath></defs><rect x="-7.5" width="90" fill="#ffffff" y="-7.5" height="89.999996" fill-opacity="1"/><rect x="-7.5" width="90" fill="#e4067e" y="-7.5" height="89.999996" fill-opacity="1"/><path stroke-linecap="butt" transform="matrix(0, 0.75, -0.75, 0, 1.125001, -0.000001)" fill="none" stroke-linejoin="miter" d="M 0.00000133333 1.500002 L 100.00001 1.500002 " stroke="#000000" stroke-width="3" stroke-opacity="1" stroke-miterlimit="4"/><path stroke-linecap="butt" transform="matrix(0.75, 0, 0, 0.75, 0.0000015, -1.125001)" fill="none" stroke-linejoin="miter" d="M -0.000002 1.500001 L 100.000006 1.500001 " stroke="#000000" stroke-width="3" stroke-opacity="1" stroke-miterlimit="4"/><path stroke-linecap="butt" transform="matrix(0, 0.75, -0.75, 0, 76.124995, -0.000001)" fill="none" stroke-linejoin="miter" d="M 0.00000133333 1.499994 L 100.00001 1.499994 " stroke="#000000" stroke-width="3" stroke-opacity="1" stroke-miterlimit="4"/><path stroke-linecap="butt" transform="matrix(-0.75, 0, 0, -0.75, 74.999995, 76.124993)" fill="none" stroke-linejoin="miter" d="M -0.00000616667 1.49999 L 100.000002 1.49999 " stroke="#000000" stroke-width="3" stroke-opacity="1" stroke-miterlimit="4"/><g clip-path="url(#9b5403e6e6)"><path fill="#000000" d="M 47.492188 51.226562 L 58.464844 37.753906 C 58.820312 37.320312 59.457031 37.253906 59.890625 37.609375 C 60.324219 37.964844 60.390625 38.605469 60.035156 39.042969 L 48.351562 53.386719 C 47.972656 53.851562 47.277344 53.886719 46.851562 53.460938 L 42.148438 48.742188 C 41.75 48.34375 41.75 47.699219 42.148438 47.300781 C 42.542969 46.90625 43.1875 46.90625 43.582031 47.300781 Z M 59.089844 49.519531 C 59.667969 49.367188 60.007812 48.765625 59.855469 48.1875 C 59.726562 47.699219 59.285156 47.378906 58.808594 47.378906 C 58.101562 47.378906 57.574219 48.054688 57.761719 48.75 C 57.914062 49.328125 58.511719 49.675781 59.089844 49.519531 Z M 58.003906 45.453125 C 55.296875 46.179688 54.859375 49.863281 57.320312 51.210938 C 55.378906 57.359375 48.273438 60.074219 42.867188 57.042969 C 41.046875 56.023438 39.875 54.636719 38.964844 52.707031 C 38.726562 52.199219 38.125 51.980469 37.617188 52.222656 C 37.109375 52.460938 36.894531 53.070312 37.132812 53.578125 C 38.222656 55.886719 39.691406 57.597656 41.878906 58.820312 C 48.488281 62.519531 57.144531 59.121094 59.339844 51.542969 C 61.164062 51.214844 62.285156 49.417969 61.8125 47.660156 C 61.367188 45.996094 59.660156 45.007812 58.003906 45.453125 Z M 36.816406 47.761719 C 36.035156 47.972656 35.398438 47.125 35.796875 46.433594 C 36.199219 45.734375 37.246094 45.871094 37.453125 46.652344 C 37.585938 47.132812 37.296875 47.632812 36.816406 47.761719 Z M 39.414062 46.125 C 39.234375 45.453125 38.832031 44.878906 38.273438 44.484375 C 40.636719 38.324219 48.152344 36.0625 53.527344 39.867188 C 53.988281 40.1875 54.621094 40.082031 54.941406 39.621094 C 55.265625 39.164062 55.15625 38.527344 54.699219 38.203125 C 48.175781 33.578125 39.035156 36.429688 36.300781 43.957031 C 34.46875 44.144531 33.28125 45.90625 33.746094 47.648438 C 34.171875 49.234375 35.804688 50.140625 37.339844 49.730469 C 38.902344 49.308594 39.832031 47.691406 39.414062 46.125 Z M 47.785156 68.96875 C 58.007812 63.164062 63.945312 54.976562 63.863281 46.585938 L 63.863281 36.5625 C 58.046875 34.371094 52.640625 31.503906 47.785156 28.023438 C 42.925781 31.503906 37.523438 34.371094 31.703125 36.5625 L 31.703125 46.691406 C 31.703125 55.0625 37.558594 63.164062 47.785156 68.96875 Z M 10.929688 52.328125 L 10.929688 45.957031 C 10.929688 38.675781 15.445312 32.210938 22.222656 29.675781 C 25.902344 33.027344 31.210938 33.171875 35.035156 29.996094 C 36.054688 30.4375 37.027344 30.976562 37.941406 31.601562 C 35.503906 32.835938 32.964844 33.9375 30.34375 34.894531 C 29.941406 35.042969 29.675781 35.425781 29.675781 35.851562 L 29.675781 46.675781 C 29.675781 48.59375 29.9375 50.480469 30.457031 52.328125 Z M 20.675781 19.523438 L 28.046875 21.902344 C 28.558594 22.066406 29.070312 22.066406 29.582031 21.902344 L 36.953125 19.523438 C 37.804688 25.070312 33.980469 30.253906 28.8125 30.253906 C 23.640625 30.253906 19.820312 25.054688 20.675781 19.523438 Z M 18.296875 16.425781 C 18.355469 16.578125 18.445312 16.667969 18.601562 16.714844 L 28.667969 19.964844 C 28.777344 20 28.855469 20 28.960938 19.964844 L 39.027344 16.714844 C 39.328125 16.617188 39.453125 16.277344 39.289062 16.007812 L 38.949219 15.445312 L 18.683594 15.445312 L 18.339844 16.007812 C 18.253906 16.148438 18.242188 16.273438 18.296875 16.425781 Z M 17.113281 10.339844 C 19.613281 7.507812 24.46875 5.863281 29.796875 6.039062 C 34.625 6.199219 38.800781 7.820312 40.6875 10.265625 C 41.011719 10.679688 40.964844 11.269531 40.589844 11.636719 L 38.746094 13.410156 L 18.882812 13.410156 L 17.171875 11.761719 C 16.773438 11.375 16.75 10.753906 17.113281 10.339844 Z M 65.894531 35.851562 C 65.894531 35.425781 65.625 35.042969 65.226562 34.894531 C 59.089844 32.65625 53.421875 29.644531 48.382812 25.945312 C 48.027344 25.683594 47.542969 25.683594 47.1875 25.945312 C 44.898438 27.625 42.480469 29.160156 39.949219 30.546875 C 38.886719 29.730469 37.75 29.03125 36.550781 28.453125 C 38.640625 25.851562 39.53125 22.359375 38.902344 18.894531 L 39.648438 18.65625 C 41.199219 18.152344 41.871094 16.339844 41.019531 14.945312 L 40.671875 14.375 L 41.992188 13.101562 C 43.121094 12.015625 43.25 10.261719 42.292969 9.019531 C 40.007812 6.0625 35.363281 4.1875 29.863281 4.003906 C 23.863281 3.800781 18.53125 5.667969 15.597656 8.988281 C 14.503906 10.222656 14.582031 12.085938 15.765625 13.226562 L 16.957031 14.375 L 16.609375 14.945312 C 15.757812 16.339844 16.429688 18.152344 17.980469 18.65625 L 18.726562 18.894531 C 18.132812 22.179688 18.898438 25.5 20.777344 28.0625 C 13.632812 31.074219 8.898438 38.125 8.898438 45.957031 L 8.898438 53.347656 C 8.898438 53.910156 9.355469 54.363281 9.914062 54.363281 L 31.140625 54.363281 C 33.886719 61.410156 40.109375 67.0625 47.292969 71.027344 C 47.597656 71.195312 47.96875 71.195312 48.273438 71.027344 C 53.734375 68.003906 58.042969 64.40625 61.082031 60.320312 C 64.277344 56.03125 65.894531 51.445312 65.894531 46.667969 Z M 23.097656 41.117188 C 23.605469 40.761719 24.058594 40.359375 24.453125 39.910156 C 23.871094 39.777344 23.265625 39.71875 22.648438 39.734375 C 22.191406 39.738281 21.785156 39.449219 21.65625 39.007812 C 21.476562 38.414062 21.234375 37.855469 20.929688 37.34375 C 20.625 37.855469 20.382812 38.414062 20.207031 39.007812 C 20.074219 39.449219 19.667969 39.738281 19.210938 39.734375 C 18.59375 39.71875 17.988281 39.777344 17.410156 39.910156 C 17.800781 40.359375 18.253906 40.761719 18.761719 41.117188 C 19.140625 41.375 19.292969 41.855469 19.144531 42.289062 C 18.9375 42.875 18.808594 43.46875 18.753906 44.0625 C 19.300781 43.828125 19.824219 43.519531 20.316406 43.144531 C 20.679688 42.867188 21.179688 42.867188 21.546875 43.144531 C 22.035156 43.519531 22.558594 43.828125 23.105469 44.0625 C 23.050781 43.46875 22.921875 42.875 22.71875 42.289062 C 22.566406 41.855469 22.722656 41.375 23.097656 41.117188 Z M 26.484375 38.441406 C 25.496094 38.015625 24.445312 37.769531 23.355469 37.707031 C 22.960938 36.6875 22.402344 35.761719 21.691406 34.949219 C 21.285156 34.488281 20.574219 34.488281 20.167969 34.949219 C 19.457031 35.761719 18.898438 36.6875 18.507812 37.707031 C 17.414062 37.769531 16.363281 38.015625 15.375 38.441406 C 14.816406 38.6875 14.59375 39.371094 14.90625 39.894531 C 15.453125 40.828125 16.160156 41.644531 17.007812 42.335938 C 16.726562 43.398438 16.636719 44.472656 16.738281 45.550781 C 16.792969 46.15625 17.375 46.582031 17.96875 46.449219 C 19.019531 46.210938 20.011719 45.792969 20.929688 45.195312 C 21.847656 45.792969 22.839844 46.210938 23.890625 46.449219 C 24.476562 46.585938 25.066406 46.167969 25.125 45.550781 C 25.226562 44.472656 25.132812 43.398438 24.851562 42.335938 C 25.699219 41.644531 26.40625 40.828125 26.957031 39.894531 C 27.265625 39.371094 27.046875 38.6875 26.484375 38.441406 Z M 26.484375 38.441406 " fill-opacity="1" fill-rule="evenodd"/></g></svg>