<svg xmlns="http://www.w3.org/2000/svg" xmlns:xlink="http://www.w3.org/1999/xlink" width="100" zoomAndPan="magnify" viewBox="0 0 75 74.999997" height="100" preserveAspectRatio="xMidYMid meet" version="1.0"><defs><clipPath id="878776684f"><path d="M 5.574219 5.414062 L 69.324219 5.414062 L 69.324219 69.914062 L 5.574219 69.914062 Z M 5.574219 5.414062 " clip-rule="nonzero"/></clipPath></defs><rect x="-7.5" width="90" fill="#ffffff" y="-7.5" height="89.999996" fill-opacity="1"/><rect x="-7.5" width="90" fill="#e4067e" y="-7.5" height="89.999996" fill-opacity="1"/><path stroke-linecap="butt" transform="matrix(0, 0.75, -0.75, 0, 1.125001, -0.000001)" fill="none" stroke-linejoin="miter" d="M 0.00000133333 1.500002 L 100.00001 1.500002 " stroke="#000000" stroke-width="3" stroke-opacity="1" stroke-miterlimit="4"/><path stroke-linecap="butt" transform="matrix(0.75, 0, 0, 0.75, 0.0000015, -1.125001)" fill="none" stroke-linejoin="miter" d="M -0.000002 1.500001 L 100.000006 1.500001 " stroke="#000000" stroke-width="3" stroke-opacity="1" stroke-miterlimit="4"/><path stroke-linecap="butt" transform="matrix(0, 0.75, -0.75, 0, 76.124995, -0.000001)" fill="none" stroke-linejoin="miter" d="M 0.00000133333 1.499994 L 100.00001 1.499994 " stroke="#000000" stroke-width="3" stroke-opacity="1" stroke-miterlimit="4"/><path stroke-linecap="butt" transform="matrix(-0.75, 0, 0, -0.75, 74.999995, 76.124993)" fill="none" stroke-linejoin="miter" d="M -0.00000616667 1.49999 L 100.000002 1.49999 " stroke="#000000" stroke-width="3" stroke-opacity="1" stroke-miterlimit="4"/><g clip-path="url(#878776684f)"><path fill="#000000" d="M 43.898438 57.796875 C 44.402344 57.691406 44.890625 57.558594 45.367188 57.398438 C 49.027344 56.167969 54.890625 52.8125 59.8125 50.019531 C 60.839844 49.4375 62.105469 49.675781 62.855469 50.589844 L 62.96875 50.726562 C 63.773438 51.710938 63.683594 53.152344 62.765625 54.027344 C 58.945312 57.671875 53.648438 62.214844 49.304688 65.046875 C 46.324219 66.992188 42.511719 69.304688 38.910156 69.601562 C 36.054688 69.835938 33.226562 68.78125 30.367188 68.367188 C 26.519531 67.808594 22.460938 67.808594 18.472656 67.855469 C 18.433594 67.855469 18.402344 67.839844 18.375 67.816406 C 18.351562 67.789062 18.335938 67.757812 18.335938 67.71875 L 18.335938 55.726562 C 18.335938 55.710938 18.335938 55.691406 18.335938 55.675781 C 18.335938 55.609375 18.378906 55.554688 18.4375 55.542969 C 19.597656 55.269531 20.746094 54.996094 21.886719 54.679688 C 25.316406 53.742188 27.699219 50.980469 31.496094 52.132812 L 40.128906 54.75 C 41.496094 55.164062 42.285156 56.617188 41.910156 57.996094 C 41.910156 57.996094 41.90625 57.996094 41.90625 57.996094 C 41.628906 58.925781 40.675781 59.289062 39.773438 59.097656 C 37.6875 58.65625 34.964844 57.867188 32.996094 57.925781 C 32.617188 57.9375 32.246094 57.96875 31.886719 58.023438 C 31.34375 58.101562 30.964844 58.609375 31.042969 59.15625 C 31.117188 59.703125 31.621094 60.085938 32.167969 60.007812 C 32.769531 59.917969 33.320312 59.898438 33.910156 59.953125 C 35.382812 60.09375 37.695312 60.707031 39.371094 61.058594 C 41.238281 61.453125 43.152344 60.5625 43.789062 58.660156 C 43.871094 58.425781 43.878906 58.195312 43.800781 57.972656 C 43.785156 57.933594 43.789062 57.898438 43.808594 57.863281 C 43.828125 57.828125 43.859375 57.804688 43.898438 57.796875 Z M 61.207031 21.773438 C 61.738281 21.628906 62.285156 21.949219 62.425781 22.484375 C 62.570312 23.019531 62.253906 23.566406 61.722656 23.710938 L 61.402344 23.796875 C 61.34375 23.8125 61.304688 23.859375 61.300781 23.921875 C 61.300781 23.980469 61.335938 24.03125 61.390625 24.050781 C 65.269531 25.414062 69.320312 27.613281 69.320312 30.875 C 69.320312 35.300781 61.867188 37.769531 57.503906 38.851562 C 56.96875 38.984375 56.429688 38.65625 56.300781 38.117188 C 56.167969 37.582031 56.496094 37.039062 57.027344 36.90625 C 60.371094 36.078125 63.078125 35.050781 64.910156 33.890625 C 68.128906 31.851562 68.128906 29.902344 64.910156 27.863281 C 63.933594 27.246094 62.703125 26.664062 61.265625 26.128906 C 61.207031 26.109375 61.144531 26.128906 61.109375 26.175781 C 61.074219 26.226562 61.078125 26.292969 61.117188 26.339844 C 61.433594 26.734375 61.410156 27.3125 61.042969 27.679688 C 60.65625 28.070312 60.023438 28.070312 59.632812 27.679688 L 56.558594 24.585938 L 56.5625 24.582031 C 56.027344 24.046875 56.261719 23.105469 57.007812 22.90625 Z M 13.78125 35.414062 C 13.464844 35.019531 13.488281 34.441406 13.851562 34.074219 C 14.242188 33.683594 14.871094 33.683594 15.261719 34.074219 L 18.335938 37.167969 C 18.816406 37.652344 18.691406 38.488281 18.050781 38.785156 C 18.042969 38.789062 18.039062 38.792969 18.03125 38.792969 L 13.6875 39.980469 C 13.15625 40.121094 12.613281 39.804688 12.46875 39.269531 C 12.328125 38.734375 12.644531 38.1875 13.175781 38.042969 L 13.496094 37.957031 C 13.554688 37.941406 13.59375 37.890625 13.59375 37.832031 C 13.597656 37.773438 13.5625 37.722656 13.503906 37.703125 C 9.625 36.335938 5.574219 34.136719 5.574219 30.875 C 5.574219 26.453125 13.027344 23.984375 17.394531 22.902344 C 17.925781 22.769531 18.464844 23.097656 18.597656 23.636719 C 18.726562 24.171875 18.402344 24.714844 17.867188 24.847656 C 14.523438 25.675781 11.820312 26.703125 9.988281 27.863281 C 6.769531 29.902344 6.769531 31.851562 9.988281 33.890625 C 10.964844 34.507812 12.191406 35.089844 13.632812 35.625 C 13.6875 35.644531 13.75 35.625 13.785156 35.574219 C 13.820312 35.527344 13.820312 35.460938 13.78125 35.414062 Z M 37.386719 5.519531 L 20.804688 14.28125 C 20.761719 14.304688 20.734375 14.347656 20.734375 14.398438 L 20.734375 30.628906 C 20.734375 35.859375 23.058594 40.359375 27.3125 43.367188 L 37.371094 50.480469 C 37.417969 50.511719 37.476562 50.511719 37.523438 50.480469 L 47.585938 43.367188 C 51.839844 40.359375 54.160156 35.859375 54.160156 30.628906 L 54.160156 14.398438 C 54.160156 14.347656 54.136719 14.304688 54.089844 14.28125 L 37.511719 5.519531 C 37.46875 5.496094 37.425781 5.496094 37.386719 5.519531 Z M 32.066406 28.605469 C 31.679688 28.214844 31.679688 27.578125 32.066406 27.1875 C 32.457031 26.792969 33.089844 26.792969 33.476562 27.1875 L 37.148438 30.878906 C 37.175781 30.90625 37.207031 30.917969 37.246094 30.917969 C 37.285156 30.914062 37.320312 30.898438 37.34375 30.867188 L 47.859375 17.917969 C 48.207031 17.488281 48.835938 17.425781 49.261719 17.777344 C 49.6875 18.128906 49.75 18.757812 49.402344 19.1875 L 38.117188 33.085938 C 37.730469 33.578125 37.039062 33.609375 36.621094 33.1875 Z M 27.214844 33.292969 C 26.980469 32.792969 27.195312 32.195312 27.691406 31.960938 C 28.1875 31.722656 28.78125 31.9375 29.015625 32.4375 C 30.121094 34.792969 31.742188 36.417969 34.238281 37.300781 C 39.667969 39.226562 45.753906 35.910156 46.996094 30.070312 C 47.007812 30.019531 46.992188 29.96875 46.949219 29.9375 C 45.652344 28.917969 46.046875 26.796875 47.679688 26.355469 C 48.761719 26.0625 49.875 26.710938 50.164062 27.800781 C 50.425781 28.773438 49.9375 29.773438 49.058594 30.183594 C 49.015625 30.203125 48.992188 30.238281 48.984375 30.28125 C 47.75 36.609375 41.707031 40.757812 35.453125 39.683594 C 32.359375 39.148438 29.671875 37.417969 28 34.746094 C 27.699219 34.257812 27.441406 33.773438 27.214844 33.292969 Z M 25.839844 25.835938 C 25.878906 25.816406 25.90625 25.785156 25.914062 25.742188 C 26.277344 23.878906 27.078125 22.136719 28.238281 20.664062 C 32.128906 15.714844 39.140625 14.738281 44.234375 18.351562 C 44.683594 18.667969 44.792969 19.292969 44.476562 19.746094 C 44.160156 20.199219 43.539062 20.308594 43.089844 19.988281 C 41.925781 19.160156 40.582031 18.589844 39.160156 18.335938 C 33.960938 17.398438 28.996094 20.8125 27.898438 25.949219 C 27.886719 26 27.90625 26.050781 27.949219 26.082031 C 29.242188 27.101562 28.851562 29.226562 27.21875 29.667969 C 26.136719 29.957031 25.023438 29.3125 24.730469 28.21875 C 24.472656 27.246094 24.957031 26.246094 25.839844 25.835938 Z M 12.851562 54.246094 L 14.863281 54.246094 C 15.671875 54.246094 16.335938 54.914062 16.335938 55.726562 L 16.335938 68.234375 C 16.335938 69.050781 15.671875 69.71875 14.863281 69.71875 L 12.851562 69.71875 C 12.042969 69.71875 11.378906 69.050781 11.378906 68.234375 L 11.378906 55.726562 C 11.378906 54.914062 12.042969 54.246094 12.851562 54.246094 Z M 12.851562 54.246094 " fill-opacity="1" fill-rule="evenodd"/></g></svg>