<svg xmlns="http://www.w3.org/2000/svg" xmlns:xlink="http://www.w3.org/1999/xlink" width="100" zoomAndPan="magnify" viewBox="0 0 75 74.999997" height="100" preserveAspectRatio="xMidYMid meet" version="1.0"><defs><clipPath id="5d30793ddb"><path d="M 3.75 4.902344 L 71.25 4.902344 L 71.25 70.152344 L 3.75 70.152344 Z M 3.75 4.902344 " clip-rule="nonzero"/></clipPath></defs><rect x="-7.5" width="90" fill="#ffffff" y="-7.5" height="89.999996" fill-opacity="1"/><rect x="-7.5" width="90" fill="#4dbed2" y="-7.5" height="89.999996" fill-opacity="1"/><path stroke-linecap="butt" transform="matrix(0, 0.75, -0.75, 0, 1.125001, -0.000001)" fill="none" stroke-linejoin="miter" d="M 0.00000133333 1.500002 L 100.00001 1.500002 " stroke="#000000" stroke-width="3" stroke-opacity="1" stroke-miterlimit="4"/><path stroke-linecap="butt" transform="matrix(0.75, 0, 0, 0.75, 0.0000015, -1.125001)" fill="none" stroke-linejoin="miter" d="M -0.000002 1.500001 L 100.000006 1.500001 " stroke="#000000" stroke-width="3" stroke-opacity="1" stroke-miterlimit="4"/><path stroke-linecap="butt" transform="matrix(0, 0.75, -0.75, 0, 76.124995, -0.000001)" fill="none" stroke-linejoin="miter" d="M 0.00000133333 1.499994 L 100.00001 1.499994 " stroke="#000000" stroke-width="3" stroke-opacity="1" stroke-miterlimit="4"/><path stroke-linecap="butt" transform="matrix(-0.75, 0, 0, -0.75, 74.999995, 76.124993)" fill="none" stroke-linejoin="miter" d="M -0.00000616667 1.49999 L 100.000002 1.49999 " stroke="#000000" stroke-width="3" stroke-opacity="1" stroke-miterlimit="4"/><g clip-path="url(#5d30793ddb)"><path fill="#000000" d="M 22.320312 37.800781 C 19.652344 37.800781 17.492188 35.640625 17.492188 32.972656 C 17.492188 30.304688 19.652344 28.140625 22.320312 28.140625 C 24.984375 28.140625 27.144531 30.304688 27.144531 32.972656 C 27.144531 35.640625 24.984375 37.800781 22.320312 37.800781 Z M 40.222656 30.480469 L 39.253906 30.335938 C 37.875 30.128906 36.722656 29.191406 36.242188 27.882812 C 36.101562 27.488281 35.941406 27.105469 35.765625 26.730469 C 35.179688 25.460938 35.324219 23.972656 36.15625 22.851562 L 36.738281 22.0625 C 36.96875 21.75 36.9375 21.320312 36.664062 21.042969 L 34.234375 18.613281 C 33.960938 18.339844 33.527344 18.308594 33.21875 18.539062 L 32.429688 19.121094 C 31.308594 19.957031 29.824219 20.101562 28.554688 19.511719 C 28.179688 19.335938 27.796875 19.175781 27.40625 19.035156 C 26.097656 18.554688 25.15625 17.398438 24.953125 16.023438 L 24.808594 15.054688 C 24.75 14.667969 24.421875 14.386719 24.035156 14.386719 L 20.601562 14.386719 C 20.214844 14.386719 19.886719 14.667969 19.828125 15.054688 L 19.683594 16.023438 C 19.480469 17.398438 18.539062 18.554688 17.234375 19.035156 C 16.839844 19.175781 16.457031 19.335938 16.082031 19.511719 C 14.816406 20.101562 13.328125 19.957031 12.207031 19.121094 L 11.421875 18.539062 C 11.109375 18.308594 10.675781 18.339844 10.402344 18.613281 L 7.972656 21.042969 C 7.699219 21.320312 7.667969 21.75 7.898438 22.0625 L 8.480469 22.851562 C 9.3125 23.972656 9.457031 25.460938 8.871094 26.730469 C 8.695312 27.105469 8.535156 27.488281 8.394531 27.882812 C 7.917969 29.191406 6.761719 30.128906 5.382812 30.335938 L 4.414062 30.480469 C 4.03125 30.535156 3.75 30.867188 3.75 31.253906 L 3.75 34.691406 C 3.75 35.078125 4.03125 35.40625 4.414062 35.464844 L 5.382812 35.609375 C 6.761719 35.8125 7.917969 36.753906 8.394531 38.0625 C 8.535156 38.453125 8.695312 38.839844 8.871094 39.214844 C 9.457031 40.480469 9.3125 41.96875 8.480469 43.09375 L 7.898438 43.878906 C 7.667969 44.191406 7.699219 44.625 7.972656 44.898438 L 10.402344 47.328125 C 10.675781 47.601562 11.109375 47.632812 11.421875 47.40625 L 12.207031 46.820312 C 13.328125 45.988281 14.816406 45.84375 16.082031 46.433594 C 16.457031 46.605469 16.839844 46.765625 17.234375 46.910156 C 18.539062 47.386719 19.480469 48.542969 19.683594 49.921875 L 19.828125 50.890625 C 19.886719 51.273438 20.214844 51.558594 20.601562 51.558594 L 24.035156 51.558594 C 24.421875 51.558594 24.75 51.273438 24.808594 50.890625 L 24.953125 49.921875 C 25.15625 48.542969 26.097656 47.386719 27.40625 46.910156 C 27.796875 46.765625 28.179688 46.605469 28.554688 46.433594 C 29.824219 45.84375 31.308594 45.988281 32.429688 46.820312 L 33.21875 47.40625 C 33.527344 47.632812 33.960938 47.601562 34.234375 47.328125 L 36.664062 44.898438 C 36.9375 44.625 36.96875 44.191406 36.738281 43.878906 L 36.15625 43.09375 C 35.324219 41.96875 35.179688 40.480469 35.765625 39.214844 C 35.941406 38.839844 36.101562 38.453125 36.242188 38.0625 C 36.722656 36.753906 37.875 35.8125 39.253906 35.609375 L 40.222656 35.464844 C 40.605469 35.40625 40.886719 35.078125 40.886719 34.691406 L 40.886719 31.253906 C 40.886719 30.867188 40.605469 30.535156 40.222656 30.480469 Z M 52.679688 56.386719 C 50.015625 56.386719 47.855469 54.226562 47.855469 51.558594 C 47.855469 48.890625 50.015625 46.726562 52.679688 46.726562 C 55.347656 46.726562 57.507812 48.890625 57.507812 51.558594 C 57.507812 54.226562 55.347656 56.386719 52.679688 56.386719 Z M 70.585938 49.066406 L 69.617188 48.921875 C 68.238281 48.71875 67.082031 47.773438 66.605469 46.46875 C 66.464844 46.074219 66.304688 45.691406 66.128906 45.316406 C 65.539062 44.046875 65.6875 42.558594 66.519531 41.4375 L 67.101562 40.648438 C 67.332031 40.335938 67.300781 39.90625 67.027344 39.628906 L 64.597656 37.199219 C 64.324219 36.925781 63.890625 36.894531 63.578125 37.125 L 62.792969 37.707031 C 61.671875 38.542969 60.183594 38.6875 58.917969 38.097656 C 58.542969 37.921875 58.160156 37.761719 57.765625 37.621094 C 56.460938 37.140625 55.519531 35.984375 55.316406 34.605469 L 55.171875 33.636719 C 55.113281 33.253906 54.785156 32.972656 54.398438 32.972656 L 50.964844 32.972656 C 50.578125 32.972656 50.25 33.253906 50.191406 33.636719 L 50.046875 34.605469 C 49.84375 35.984375 48.902344 37.140625 47.59375 37.621094 C 47.203125 37.761719 46.820312 37.921875 46.445312 38.097656 C 45.179688 38.6875 43.691406 38.542969 42.570312 37.707031 L 41.78125 37.125 C 41.472656 36.894531 41.039062 36.925781 40.765625 37.199219 L 38.335938 39.628906 C 38.0625 39.90625 38.03125 40.335938 38.261719 40.648438 L 38.84375 41.4375 C 39.675781 42.558594 39.820312 44.046875 39.234375 45.316406 C 39.058594 45.691406 38.898438 46.074219 38.757812 46.46875 C 38.277344 47.773438 37.125 48.71875 35.746094 48.921875 L 34.777344 49.066406 C 34.394531 49.121094 34.113281 49.453125 34.113281 49.839844 L 34.113281 53.277344 C 34.113281 53.664062 34.394531 53.992188 34.777344 54.050781 L 35.746094 54.191406 C 37.125 54.398438 38.277344 55.339844 38.757812 56.648438 C 38.898438 57.039062 39.058594 57.425781 39.234375 57.800781 C 39.820312 59.066406 39.675781 60.554688 38.84375 61.679688 L 38.261719 62.464844 C 38.03125 62.777344 38.0625 63.210938 38.335938 63.484375 L 40.765625 65.914062 C 41.039062 66.1875 41.472656 66.222656 41.78125 65.988281 L 42.570312 65.40625 C 43.691406 64.574219 45.179688 64.429688 46.445312 65.019531 C 46.820312 65.191406 47.203125 65.351562 47.59375 65.496094 C 48.902344 65.972656 49.84375 67.128906 50.046875 68.507812 L 50.191406 69.476562 C 50.25 69.859375 50.578125 70.144531 50.964844 70.144531 L 54.398438 70.144531 C 54.785156 70.144531 55.113281 69.859375 55.171875 69.476562 L 55.316406 68.507812 C 55.519531 67.128906 56.460938 65.972656 57.765625 65.496094 C 58.160156 65.351562 58.542969 65.191406 58.917969 65.019531 C 60.183594 64.429688 61.671875 64.574219 62.792969 65.40625 L 63.578125 65.988281 C 63.890625 66.222656 64.324219 66.1875 64.597656 65.914062 L 67.027344 63.484375 C 67.300781 63.210938 67.332031 62.777344 67.101562 62.464844 L 66.519531 61.679688 C 65.6875 60.554688 65.539062 59.066406 66.128906 57.800781 C 66.304688 57.425781 66.464844 57.039062 66.605469 56.648438 C 67.082031 55.339844 68.238281 54.398438 69.617188 54.191406 L 70.585938 54.050781 C 70.96875 53.992188 71.25 53.664062 71.25 53.277344 L 71.25 49.839844 C 71.25 49.453125 70.96875 49.121094 70.585938 49.066406 Z M 49.976562 21.988281 C 47.964844 21.988281 46.335938 20.355469 46.335938 18.34375 C 46.335938 16.332031 47.964844 14.699219 49.976562 14.699219 C 51.988281 14.699219 53.617188 16.332031 53.617188 18.34375 C 53.617188 20.355469 51.988281 21.988281 49.976562 21.988281 Z M 62.914062 16.542969 L 62.210938 16.4375 C 61.21875 16.292969 60.382812 15.609375 60.039062 14.667969 C 59.933594 14.382812 59.820312 14.105469 59.691406 13.832031 C 59.269531 12.917969 59.371094 11.84375 59.972656 11.03125 L 60.394531 10.460938 C 60.5625 10.238281 60.539062 9.921875 60.339844 9.726562 L 58.585938 7.96875 C 58.386719 7.773438 58.074219 7.75 57.851562 7.914062 L 57.28125 8.335938 C 56.472656 8.9375 55.398438 9.042969 54.480469 8.617188 C 54.210938 8.492188 53.933594 8.375 53.652344 8.273438 C 52.707031 7.925781 52.027344 7.09375 51.878906 6.097656 L 51.773438 5.398438 C 51.734375 5.121094 51.496094 4.914062 51.214844 4.914062 L 48.734375 4.914062 C 48.457031 4.914062 48.21875 5.121094 48.175781 5.398438 L 48.074219 6.097656 C 47.925781 7.09375 47.246094 7.925781 46.300781 8.273438 C 46.015625 8.375 45.738281 8.492188 45.46875 8.617188 C 44.554688 9.042969 43.480469 8.9375 42.667969 8.335938 L 42.101562 7.914062 C 41.875 7.75 41.5625 7.773438 41.363281 7.96875 L 39.609375 9.726562 C 39.414062 9.921875 39.390625 10.238281 39.554688 10.460938 L 39.976562 11.03125 C 40.578125 11.84375 40.683594 12.917969 40.257812 13.832031 C 40.132812 14.105469 40.015625 14.382812 39.914062 14.667969 C 39.570312 15.609375 38.734375 16.292969 37.738281 16.4375 L 37.039062 16.542969 C 36.761719 16.585938 36.558594 16.824219 36.558594 17.101562 L 36.558594 19.585938 C 36.558594 19.867188 36.761719 20.105469 37.039062 20.144531 L 37.738281 20.25 C 38.734375 20.398438 39.570312 21.078125 39.914062 22.023438 C 40.015625 22.304688 40.132812 22.582031 40.257812 22.855469 C 40.683594 23.769531 40.578125 24.847656 39.976562 25.65625 L 39.554688 26.226562 C 39.390625 26.453125 39.414062 26.765625 39.609375 26.964844 L 41.363281 28.71875 C 41.5625 28.917969 41.875 28.941406 42.101562 28.773438 L 42.667969 28.351562 C 43.480469 27.75 44.554688 27.644531 45.46875 28.070312 C 45.738281 28.195312 46.015625 28.3125 46.300781 28.414062 C 47.246094 28.761719 47.925781 29.597656 48.074219 30.59375 L 48.175781 31.292969 C 48.21875 31.570312 48.457031 31.773438 48.734375 31.773438 L 51.214844 31.773438 C 51.496094 31.773438 51.734375 31.570312 51.773438 31.292969 L 51.878906 30.59375 C 52.027344 29.597656 52.707031 28.761719 53.652344 28.414062 C 53.933594 28.3125 54.210938 28.195312 54.480469 28.070312 C 55.398438 27.644531 56.472656 27.75 57.28125 28.351562 L 57.851562 28.773438 C 58.074219 28.941406 58.386719 28.917969 58.585938 28.71875 L 60.339844 26.964844 C 60.539062 26.765625 60.5625 26.453125 60.394531 26.226562 L 59.972656 25.65625 C 59.371094 24.847656 59.269531 23.769531 59.691406 22.855469 C 59.820312 22.582031 59.933594 22.304688 60.039062 22.023438 C 60.382812 21.078125 61.21875 20.398438 62.210938 20.25 L 62.914062 20.144531 C 63.1875 20.105469 63.394531 19.867188 63.394531 19.585938 L 63.394531 17.101562 C 63.394531 16.824219 63.1875 16.585938 62.914062 16.542969 " fill-opacity="1" fill-rule="nonzero"/></g></svg>