<svg xmlns="http://www.w3.org/2000/svg" xmlns:xlink="http://www.w3.org/1999/xlink" width="100" zoomAndPan="magnify" viewBox="0 0 75 74.999997" height="100" preserveAspectRatio="xMidYMid meet" version="1.0"><defs><clipPath id="fcbcbea824"><path d="M 5.453125 5.964844 L 67.703125 5.964844 L 67.703125 68.964844 L 5.453125 68.964844 Z M 5.453125 5.964844 " clip-rule="nonzero"/></clipPath></defs><rect x="-7.5" width="90" fill="#ffffff" y="-7.5" height="89.999996" fill-opacity="1"/><rect x="-7.5" width="90" fill="#4dbed2" y="-7.5" height="89.999996" fill-opacity="1"/><path stroke-linecap="butt" transform="matrix(0, 0.75, -0.75, 0, 1.125001, -0.000001)" fill="none" stroke-linejoin="miter" d="M 0.00000133333 1.500002 L 100.00001 1.500002 " stroke="#000000" stroke-width="3" stroke-opacity="1" stroke-miterlimit="4"/><path stroke-linecap="butt" transform="matrix(0.75, 0, 0, 0.75, 0.0000015, -1.125001)" fill="none" stroke-linejoin="miter" d="M -0.000002 1.500001 L 100.000006 1.500001 " stroke="#000000" stroke-width="3" stroke-opacity="1" stroke-miterlimit="4"/><path stroke-linecap="butt" transform="matrix(0, 0.75, -0.75, 0, 76.124995, -0.000001)" fill="none" stroke-linejoin="miter" d="M 0.00000133333 1.499994 L 100.00001 1.499994 " stroke="#000000" stroke-width="3" stroke-opacity="1" stroke-miterlimit="4"/><path stroke-linecap="butt" transform="matrix(-0.75, 0, 0, -0.75, 74.999995, 76.124993)" fill="none" stroke-linejoin="miter" d="M -0.00000616667 1.49999 L 100.000002 1.49999 " stroke="#000000" stroke-width="3" stroke-opacity="1" stroke-miterlimit="4"/><g clip-path="url(#fcbcbea824)"><path fill="#000000" d="M 41.214844 5.964844 L 53.023438 11 L 49.429688 14.039062 L 41.628906 10.710938 C 41.355469 10.597656 41.058594 10.605469 40.804688 10.710938 L 33.71875 13.734375 C 33.175781 12.414062 32.453125 11.183594 31.585938 10.070312 Z M 19.125 6.097656 C 11.582031 6.097656 5.460938 12.1875 5.460938 19.699219 C 5.460938 27.210938 11.582031 33.304688 19.125 33.304688 C 26.671875 33.304688 32.789062 27.210938 32.789062 19.699219 C 32.789062 12.1875 26.671875 6.097656 19.125 6.097656 Z M 19.125 25.71875 C 20.105469 25.71875 20.902344 26.507812 20.902344 27.484375 C 20.902344 28.460938 20.105469 29.253906 19.125 29.253906 C 18.144531 29.253906 17.351562 28.460938 17.351562 27.484375 C 17.351562 26.507812 18.144531 25.71875 19.125 25.71875 Z M 19.125 22.5625 C 18.382812 22.5625 17.769531 21.976562 17.742188 21.234375 L 17.390625 11.578125 C 17.363281 10.792969 17.988281 10.148438 18.777344 10.148438 C 19.273438 10.148438 18.980469 10.148438 19.476562 10.148438 C 20.265625 10.148438 20.890625 10.792969 20.863281 11.578125 L 20.511719 21.234375 C 20.484375 21.976562 19.871094 22.5625 19.125 22.5625 Z M 18.945312 35.402344 L 18.945312 38.589844 C 18.945312 44.980469 21.289062 50.949219 25.214844 55.59375 C 26.730469 57.386719 28.480469 58.980469 30.425781 60.328125 L 28.132812 63.859375 C 19.984375 58.269531 14.726562 48.921875 14.726562 38.589844 L 14.726562 34.785156 C 16.070312 35.171875 17.484375 35.382812 18.945312 35.402344 Z M 41.214844 38.433594 C 42.828125 38.433594 44.136719 39.734375 44.136719 41.339844 C 44.136719 42.386719 43.582031 43.304688 42.75 43.816406 L 42.75 46.496094 C 42.75 47.332031 42.058594 48.019531 41.214844 48.019531 C 40.375 48.019531 39.683594 47.332031 39.683594 46.496094 L 39.683594 43.816406 C 38.851562 43.304688 38.296875 42.386719 38.296875 41.339844 C 38.296875 39.734375 39.605469 38.433594 41.214844 38.433594 Z M 32.769531 35.289062 L 34.316406 35.289062 L 34.316406 31.015625 C 34.316406 27.234375 37.421875 24.144531 41.214844 24.144531 C 45.011719 24.144531 48.117188 27.234375 48.117188 31.015625 L 48.117188 32.875 C 48.117188 32.875 47.0625 32.875 44.957031 32.875 L 44.957031 31.015625 C 44.957031 28.972656 43.269531 27.289062 41.214844 27.289062 C 39.164062 27.289062 37.476562 28.972656 37.476562 31.015625 L 37.476562 35.289062 L 49.664062 35.289062 C 50.359375 35.289062 50.925781 35.851562 50.925781 36.542969 L 50.925781 49.910156 C 50.925781 50.601562 50.359375 51.164062 49.664062 51.164062 L 32.769531 51.164062 C 32.074219 51.164062 31.507812 50.601562 31.507812 49.910156 L 31.507812 36.542969 C 31.507812 35.851562 32.074219 35.289062 32.769531 35.289062 Z M 48.550781 15.945312 L 41.214844 12.816406 L 34.390625 15.726562 C 34.722656 16.996094 34.898438 18.328125 34.898438 19.699219 C 34.898438 27.722656 28.855469 34.339844 21.054688 35.285156 L 21.054688 38.589844 C 21.054688 44.480469 23.210938 49.976562 26.820312 54.246094 C 28.355469 56.0625 30.15625 57.660156 32.164062 58.972656 L 35.21875 59.425781 L 38.804688 54.515625 L 37.464844 61.585938 C 38.675781 62.007812 39.925781 62.339844 41.214844 62.570312 C 46.996094 61.539062 52.023438 58.496094 55.613281 54.246094 C 59.222656 49.976562 61.378906 44.480469 61.378906 38.589844 L 61.378906 21.417969 L 53.125 17.894531 L 52.90625 18.050781 L 54.304688 21.035156 L 53.769531 23.71875 L 56.503906 28.972656 L 49.046875 25.40625 L 49.894531 21.148438 L 47.4375 18.519531 Z M 55.132812 16.472656 L 62.777344 19.734375 C 63.191406 19.875 63.488281 20.265625 63.488281 20.726562 L 63.488281 38.589844 C 63.488281 44.980469 61.144531 50.949219 57.21875 55.59375 C 53.292969 60.238281 47.78125 63.558594 41.453125 64.65625 C 41.269531 64.691406 41.164062 64.691406 40.980469 64.65625 C 38.601562 64.246094 36.335938 63.519531 34.230469 62.523438 L 33.136719 62.371094 L 31.132812 65.675781 C 34.46875 67.445312 37.527344 68.324219 41.214844 68.964844 C 56.449219 66.320312 67.707031 54.238281 67.707031 38.589844 L 67.707031 17.265625 L 59.164062 13.621094 Z M 55.132812 16.472656 " fill-opacity="1" fill-rule="evenodd"/></g></svg>