<svg xmlns="http://www.w3.org/2000/svg" xmlns:xlink="http://www.w3.org/1999/xlink" width="1366" zoomAndPan="magnify" viewBox="0 0 1024.5 576" height="768" preserveAspectRatio="xMidYMid meet" version="1.0"><defs><clipPath id="034f0358c9"><path d="M 0 0.140625 L 1024 0.140625 L 1024 575.859375 L 0 575.859375 Z M 0 0.140625 " clip-rule="nonzero"/></clipPath><clipPath id="1e3e4b0cca"><path d="M 0 0.140625 L 1024 0.140625 L 1024 280.777344 L 0 280.777344 Z M 0 0.140625 " clip-rule="nonzero"/></clipPath><clipPath id="d8c7c1611c"><path d="M 103.566406 280.628906 L 1024 280.628906 L 1024 575.859375 L 103.566406 575.859375 Z M 103.566406 280.628906 " clip-rule="nonzero"/></clipPath><clipPath id="4b49455b7d"><path d="M 0 280.628906 L 103.566406 280.628906 L 103.566406 575.859375 L 0 575.859375 Z M 0 280.628906 " clip-rule="nonzero"/></clipPath><clipPath id="7087747ac8"><path d="M 0 0.140625 L 1024 0.140625 L 1024 75.621094 L 0 75.621094 Z M 0 0.140625 " clip-rule="nonzero"/></clipPath><clipPath id="ce8d4f3a6d"><path d="M 0 75.472656 L 103.566406 75.472656 L 103.566406 382.824219 L 0 382.824219 Z M 0 75.472656 " clip-rule="nonzero"/></clipPath><clipPath id="b3559cbe99"><path d="M 922.386719 0.140625 L 1024 0.140625 L 1024 177.910156 L 922.386719 177.910156 Z M 922.386719 0.140625 " clip-rule="nonzero"/></clipPath><clipPath id="b89f67946d"><path d="M 922.386719 280.628906 L 1024 280.628906 L 1024 575.859375 L 922.386719 575.859375 Z M 922.386719 280.628906 " clip-rule="nonzero"/></clipPath><clipPath id="b8b3857115"><path d="M 103.566406 484.828125 L 1024 484.828125 L 1024 575.859375 L 103.566406 575.859375 Z M 103.566406 484.828125 " clip-rule="nonzero"/></clipPath></defs><g clip-path="url(#034f0358c9)"><path fill="#ffffff" d="M 0 0.140625 L 1024 0.140625 L 1024 575.859375 L 0 575.859375 Z M 0 0.140625 " fill-opacity="1" fill-rule="nonzero"/><path fill="#ffffff" d="M 0 0.140625 L 1024 0.140625 L 1024 575.859375 L 0 575.859375 Z M 0 0.140625 " fill-opacity="1" fill-rule="nonzero"/></g><g clip-path="url(#1e3e4b0cca)"><path fill="#dadae4" d="M 0 -26.570312 L 1023.980469 -26.570312 L 1023.980469 280.625 L 0 280.625 Z M 0 -26.570312 " fill-opacity="1" fill-rule="nonzero"/><path fill="#ffffff" d="M 819.183594 75.828125 L 921.582031 75.828125 L 921.582031 178.230469 L 819.183594 178.230469 Z M 819.183594 75.828125 L 819.183594 -26.570312 L 716.78125 -26.570312 L 716.78125 75.828125 Z M 409.59375 75.828125 L 409.59375 -26.570312 L 307.195312 -26.570312 L 307.195312 75.828125 Z M 614.386719 75.828125 L 614.386719 -26.570312 L 511.988281 -26.570312 L 511.988281 75.828125 Z M 204.792969 75.828125 L 204.792969 178.230469 L 307.195312 178.230469 L 307.195312 75.828125 Z M 1023.980469 75.828125 L 1023.980469 -26.570312 L 921.582031 -26.570312 L 921.582031 75.828125 Z M 614.386719 75.828125 L 614.386719 178.230469 L 716.789062 178.230469 L 716.789062 75.828125 Z M 409.59375 75.828125 L 409.59375 178.230469 L 511.992188 178.230469 L 511.992188 75.828125 Z M 511.988281 178.222656 L 511.988281 280.625 L 614.386719 280.625 L 614.386719 178.222656 Z M 716.789062 178.222656 L 716.789062 280.625 L 819.1875 280.625 L 819.1875 178.222656 Z M 921.582031 280.625 L 1023.980469 280.625 L 1023.980469 178.222656 L 921.582031 178.222656 Z M 102.398438 75.828125 L 0 75.828125 L 0 178.230469 L 102.398438 178.230469 Z M 204.792969 75.828125 L 204.792969 -26.570312 L 102.398438 -26.570312 L 102.398438 75.828125 Z M 102.398438 178.222656 L 102.398438 280.625 L 204.800781 280.625 L 204.800781 178.222656 Z M 307.195312 178.222656 L 307.195312 280.625 L 409.59375 280.625 L 409.59375 178.222656 Z M 307.195312 178.222656 " fill-opacity="1" fill-rule="nonzero"/></g><g clip-path="url(#d8c7c1611c)"><path fill="#dadae4" d="M 103.566406 280.628906 L 1127.546875 280.628906 L 1127.546875 587.824219 L 103.566406 587.824219 Z M 103.566406 280.628906 " fill-opacity="1" fill-rule="nonzero"/><path fill="#ffffff" d="M 922.746094 383.03125 L 1025.148438 383.03125 L 1025.148438 485.429688 L 922.746094 485.429688 Z M 922.746094 383.03125 L 922.746094 280.628906 L 820.347656 280.628906 L 820.347656 383.03125 Z M 513.160156 383.03125 L 513.160156 280.628906 L 410.757812 280.628906 L 410.757812 383.03125 Z M 717.953125 383.03125 L 717.953125 280.628906 L 615.554688 280.628906 L 615.554688 383.03125 Z M 308.359375 383.03125 L 308.359375 485.429688 L 410.757812 485.429688 L 410.757812 383.03125 Z M 1127.546875 383.03125 L 1127.546875 280.628906 L 1025.148438 280.628906 L 1025.148438 383.03125 Z M 717.953125 383.03125 L 717.953125 485.429688 L 820.355469 485.429688 L 820.355469 383.03125 Z M 513.160156 383.03125 L 513.160156 485.429688 L 615.558594 485.429688 L 615.558594 383.03125 Z M 615.554688 485.421875 L 615.554688 587.824219 L 717.953125 587.824219 L 717.953125 485.421875 Z M 820.355469 485.421875 L 820.355469 587.824219 L 922.753906 587.824219 L 922.753906 485.421875 Z M 1025.148438 587.824219 L 1127.546875 587.824219 L 1127.546875 485.421875 L 1025.148438 485.421875 Z M 205.964844 383.03125 L 103.566406 383.03125 L 103.566406 485.429688 L 205.964844 485.429688 Z M 308.359375 383.03125 L 308.359375 280.628906 L 205.964844 280.628906 L 205.964844 383.03125 Z M 205.964844 485.421875 L 205.964844 587.824219 L 308.367188 587.824219 L 308.367188 485.421875 Z M 410.757812 485.421875 L 410.757812 587.824219 L 513.160156 587.824219 L 513.160156 485.421875 Z M 410.757812 485.421875 " fill-opacity="1" fill-rule="nonzero"/></g><g clip-path="url(#4b49455b7d)"><path fill="#9396b0" d="M -920.433594 280.628906 L 103.546875 280.628906 L 103.546875 587.824219 L -920.433594 587.824219 Z M -920.433594 280.628906 " fill-opacity="1" fill-rule="nonzero"/><path fill="#ffffff" d="M -101.253906 383.03125 L 1.148438 383.03125 L 1.148438 485.429688 L -101.253906 485.429688 Z M -101.253906 383.03125 L -101.253906 280.628906 L -203.652344 280.628906 L -203.652344 383.03125 Z M -510.839844 383.03125 L -510.839844 280.628906 L -613.242188 280.628906 L -613.242188 383.03125 Z M -306.046875 383.03125 L -306.046875 280.628906 L -408.445312 280.628906 L -408.445312 383.03125 Z M -715.640625 383.03125 L -715.640625 485.429688 L -613.242188 485.429688 L -613.242188 383.03125 Z M 103.546875 383.03125 L 103.546875 280.628906 L 1.148438 280.628906 L 1.148438 383.03125 Z M -306.046875 383.03125 L -306.046875 485.429688 L -203.644531 485.429688 L -203.644531 383.03125 Z M -510.839844 383.03125 L -510.839844 485.429688 L -408.441406 485.429688 L -408.441406 383.03125 Z M -408.445312 485.421875 L -408.445312 587.824219 L -306.046875 587.824219 L -306.046875 485.421875 Z M -203.644531 485.421875 L -203.644531 587.824219 L -101.246094 587.824219 L -101.246094 485.421875 Z M 1.148438 587.824219 L 103.546875 587.824219 L 103.546875 485.421875 L 1.148438 485.421875 Z M -818.035156 383.03125 L -920.433594 383.03125 L -920.433594 485.429688 L -818.035156 485.429688 Z M -715.640625 383.03125 L -715.640625 280.628906 L -818.035156 280.628906 L -818.035156 383.03125 Z M -818.035156 485.421875 L -818.035156 587.824219 L -715.632812 587.824219 L -715.632812 485.421875 Z M -613.242188 485.421875 L -613.242188 587.824219 L -510.839844 587.824219 L -510.839844 485.421875 Z M -613.242188 485.421875 " fill-opacity="1" fill-rule="nonzero"/></g><g clip-path="url(#7087747ac8)"><path fill="#9396b0" d="M 0 -231.726562 L 1023.980469 -231.726562 L 1023.980469 75.46875 L 0 75.46875 Z M 0 -231.726562 " fill-opacity="1" fill-rule="nonzero"/><path fill="#ffffff" d="M 819.183594 -129.324219 L 921.582031 -129.324219 L 921.582031 -26.925781 L 819.183594 -26.925781 Z M 819.183594 -129.324219 L 819.183594 -231.726562 L 716.78125 -231.726562 L 716.78125 -129.324219 Z M 409.59375 -129.324219 L 409.59375 -231.726562 L 307.195312 -231.726562 L 307.195312 -129.324219 Z M 614.386719 -129.324219 L 614.386719 -231.726562 L 511.988281 -231.726562 L 511.988281 -129.324219 Z M 204.792969 -129.324219 L 204.792969 -26.925781 L 307.195312 -26.925781 L 307.195312 -129.324219 Z M 1023.980469 -129.324219 L 1023.980469 -231.726562 L 921.582031 -231.726562 L 921.582031 -129.324219 Z M 614.386719 -129.324219 L 614.386719 -26.925781 L 716.789062 -26.925781 L 716.789062 -129.324219 Z M 409.59375 -129.324219 L 409.59375 -26.925781 L 511.992188 -26.925781 L 511.992188 -129.324219 Z M 511.988281 -26.929688 L 511.988281 75.46875 L 614.386719 75.46875 L 614.386719 -26.929688 Z M 716.789062 -26.929688 L 716.789062 75.46875 L 819.1875 75.46875 L 819.1875 -26.929688 Z M 921.582031 75.46875 L 1023.980469 75.46875 L 1023.980469 -26.929688 L 921.582031 -26.929688 Z M 102.398438 -129.324219 L 0 -129.324219 L 0 -26.925781 L 102.398438 -26.925781 Z M 204.792969 -129.324219 L 204.792969 -231.726562 L 102.398438 -231.726562 L 102.398438 -129.324219 Z M 102.398438 -26.929688 L 102.398438 75.46875 L 204.800781 75.46875 L 204.800781 -26.929688 Z M 307.195312 -26.929688 L 307.195312 75.46875 L 409.59375 75.46875 L 409.59375 -26.929688 Z M 307.195312 -26.929688 " fill-opacity="1" fill-rule="nonzero"/></g><g clip-path="url(#ce8d4f3a6d)"><path fill="#9396b0" d="M -920.433594 75.476562 L 103.546875 75.476562 L 103.546875 382.667969 L -920.433594 382.667969 Z M -920.433594 75.476562 " fill-opacity="1" fill-rule="nonzero"/><path fill="#ffffff" d="M -101.253906 177.875 L 1.148438 177.875 L 1.148438 280.273438 L -101.253906 280.273438 Z M -101.253906 177.875 L -101.253906 75.476562 L -203.652344 75.476562 L -203.652344 177.875 Z M -510.839844 177.875 L -510.839844 75.476562 L -613.242188 75.476562 L -613.242188 177.875 Z M -306.046875 177.875 L -306.046875 75.476562 L -408.445312 75.476562 L -408.445312 177.875 Z M -715.640625 177.875 L -715.640625 280.273438 L -613.242188 280.273438 L -613.242188 177.875 Z M 103.546875 177.875 L 103.546875 75.476562 L 1.148438 75.476562 L 1.148438 177.875 Z M -306.046875 177.875 L -306.046875 280.273438 L -203.644531 280.273438 L -203.644531 177.875 Z M -510.839844 177.875 L -510.839844 280.273438 L -408.441406 280.273438 L -408.441406 177.875 Z M -408.445312 280.269531 L -408.445312 382.667969 L -306.046875 382.667969 L -306.046875 280.269531 Z M -203.644531 280.269531 L -203.644531 382.667969 L -101.246094 382.667969 L -101.246094 280.269531 Z M 1.148438 382.667969 L 103.546875 382.667969 L 103.546875 280.269531 L 1.148438 280.269531 Z M -818.035156 177.875 L -920.433594 177.875 L -920.433594 280.273438 L -818.035156 280.273438 Z M -715.640625 177.875 L -715.640625 75.476562 L -818.035156 75.476562 L -818.035156 177.875 Z M -818.035156 280.269531 L -818.035156 382.667969 L -715.632812 382.667969 L -715.632812 280.269531 Z M -613.242188 280.269531 L -613.242188 382.667969 L -510.839844 382.667969 L -510.839844 280.269531 Z M -613.242188 280.269531 " fill-opacity="1" fill-rule="nonzero"/></g><g clip-path="url(#b3559cbe99)"><path fill="#9396b0" d="M 922.386719 -129.4375 L 1946.367188 -129.4375 L 1946.367188 177.753906 L 922.386719 177.753906 Z M 922.386719 -129.4375 " fill-opacity="1" fill-rule="nonzero"/><path fill="#ffffff" d="M 1741.566406 -27.039062 L 1843.96875 -27.039062 L 1843.96875 75.363281 L 1741.566406 75.363281 Z M 1741.566406 -27.039062 L 1741.566406 -129.4375 L 1639.167969 -129.4375 L 1639.167969 -27.039062 Z M 1331.980469 -27.039062 L 1331.980469 -129.4375 L 1229.582031 -129.4375 L 1229.582031 -27.039062 Z M 1536.773438 -27.039062 L 1536.773438 -129.4375 L 1434.375 -129.4375 L 1434.375 -27.039062 Z M 1127.179688 -27.039062 L 1127.179688 75.363281 L 1229.582031 75.363281 L 1229.582031 -27.039062 Z M 1946.367188 -27.039062 L 1946.367188 -129.4375 L 1843.96875 -129.4375 L 1843.96875 -27.039062 Z M 1536.773438 -27.039062 L 1536.773438 75.363281 L 1639.175781 75.363281 L 1639.175781 -27.039062 Z M 1331.980469 -27.039062 L 1331.980469 75.363281 L 1434.378906 75.363281 L 1434.378906 -27.039062 Z M 1434.375 75.355469 L 1434.375 177.753906 L 1536.773438 177.753906 L 1536.773438 75.355469 Z M 1639.175781 75.355469 L 1639.175781 177.753906 L 1741.574219 177.753906 L 1741.574219 75.355469 Z M 1843.96875 177.753906 L 1946.367188 177.753906 L 1946.367188 75.355469 L 1843.96875 75.355469 Z M 1024.785156 -27.039062 L 922.386719 -27.039062 L 922.386719 75.363281 L 1024.785156 75.363281 Z M 1127.179688 -27.039062 L 1127.179688 -129.4375 L 1024.785156 -129.4375 L 1024.785156 -27.039062 Z M 1024.785156 75.355469 L 1024.785156 177.753906 L 1127.1875 177.753906 L 1127.1875 75.355469 Z M 1229.582031 75.355469 L 1229.582031 177.753906 L 1331.980469 177.753906 L 1331.980469 75.355469 Z M 1229.582031 75.355469 " fill-opacity="1" fill-rule="nonzero"/></g><g clip-path="url(#b89f67946d)"><path fill="#9396b0" d="M 922.386719 280.628906 L 1946.367188 280.628906 L 1946.367188 587.824219 L 922.386719 587.824219 Z M 922.386719 280.628906 " fill-opacity="1" fill-rule="nonzero"/><path fill="#ffffff" d="M 1741.566406 383.03125 L 1843.96875 383.03125 L 1843.96875 485.429688 L 1741.566406 485.429688 Z M 1741.566406 383.03125 L 1741.566406 280.628906 L 1639.167969 280.628906 L 1639.167969 383.03125 Z M 1331.980469 383.03125 L 1331.980469 280.628906 L 1229.582031 280.628906 L 1229.582031 383.03125 Z M 1536.773438 383.03125 L 1536.773438 280.628906 L 1434.375 280.628906 L 1434.375 383.03125 Z M 1127.179688 383.03125 L 1127.179688 485.429688 L 1229.582031 485.429688 L 1229.582031 383.03125 Z M 1946.367188 383.03125 L 1946.367188 280.628906 L 1843.96875 280.628906 L 1843.96875 383.03125 Z M 1536.773438 383.03125 L 1536.773438 485.429688 L 1639.175781 485.429688 L 1639.175781 383.03125 Z M 1331.980469 383.03125 L 1331.980469 485.429688 L 1434.378906 485.429688 L 1434.378906 383.03125 Z M 1434.375 485.421875 L 1434.375 587.824219 L 1536.773438 587.824219 L 1536.773438 485.421875 Z M 1639.175781 485.421875 L 1639.175781 587.824219 L 1741.574219 587.824219 L 1741.574219 485.421875 Z M 1843.96875 587.824219 L 1946.367188 587.824219 L 1946.367188 485.421875 L 1843.96875 485.421875 Z M 1024.785156 383.03125 L 922.386719 383.03125 L 922.386719 485.429688 L 1024.785156 485.429688 Z M 1127.179688 383.03125 L 1127.179688 280.628906 L 1024.785156 280.628906 L 1024.785156 383.03125 Z M 1024.785156 485.421875 L 1024.785156 587.824219 L 1127.1875 587.824219 L 1127.1875 485.421875 Z M 1229.582031 485.421875 L 1229.582031 587.824219 L 1331.980469 587.824219 L 1331.980469 485.421875 Z M 1229.582031 485.421875 " fill-opacity="1" fill-rule="nonzero"/></g><g clip-path="url(#b8b3857115)"><path fill="#9396b0" d="M 103.566406 484.828125 L 1127.546875 484.828125 L 1127.546875 792.023438 L 103.566406 792.023438 Z M 103.566406 484.828125 " fill-opacity="1" fill-rule="nonzero"/><path fill="#ffffff" d="M 922.746094 587.230469 L 1025.148438 587.230469 L 1025.148438 689.628906 L 922.746094 689.628906 Z M 922.746094 587.230469 L 922.746094 484.828125 L 820.347656 484.828125 L 820.347656 587.230469 Z M 513.160156 587.230469 L 513.160156 484.828125 L 410.757812 484.828125 L 410.757812 587.230469 Z M 717.953125 587.230469 L 717.953125 484.828125 L 615.554688 484.828125 L 615.554688 587.230469 Z M 308.359375 587.230469 L 308.359375 689.628906 L 410.757812 689.628906 L 410.757812 587.230469 Z M 1127.546875 587.230469 L 1127.546875 484.828125 L 1025.148438 484.828125 L 1025.148438 587.230469 Z M 717.953125 587.230469 L 717.953125 689.628906 L 820.355469 689.628906 L 820.355469 587.230469 Z M 513.160156 587.230469 L 513.160156 689.628906 L 615.558594 689.628906 L 615.558594 587.230469 Z M 615.554688 689.625 L 615.554688 792.023438 L 717.953125 792.023438 L 717.953125 689.625 Z M 820.355469 689.625 L 820.355469 792.023438 L 922.753906 792.023438 L 922.753906 689.625 Z M 1025.148438 792.023438 L 1127.546875 792.023438 L 1127.546875 689.625 L 1025.148438 689.625 Z M 205.964844 587.230469 L 103.566406 587.230469 L 103.566406 689.628906 L 205.964844 689.628906 Z M 308.359375 587.230469 L 308.359375 484.828125 L 205.964844 484.828125 L 205.964844 587.230469 Z M 205.964844 689.625 L 205.964844 792.023438 L 308.367188 792.023438 L 308.367188 689.625 Z M 410.757812 689.625 L 410.757812 792.023438 L 513.160156 792.023438 L 513.160156 689.625 Z M 410.757812 689.625 " fill-opacity="1" fill-rule="nonzero"/></g></svg>