<svg xmlns="http://www.w3.org/2000/svg" xmlns:xlink="http://www.w3.org/1999/xlink" width="100" zoomAndPan="magnify" viewBox="0 0 75 74.999997" height="100" preserveAspectRatio="xMidYMid meet" version="1.0"><defs><clipPath id="788bfbdbfd"><path d="M 5.277344 22 L 70.527344 22 L 70.527344 59.515625 L 5.277344 59.515625 Z M 5.277344 22 " clip-rule="nonzero"/></clipPath><clipPath id="6830fe8f5f"><path d="M 5.277344 16 L 31 16 L 31 42 L 5.277344 42 Z M 5.277344 16 " clip-rule="nonzero"/></clipPath><clipPath id="b4f5497085"><path d="M 17 15.265625 L 65 15.265625 L 65 49 L 17 49 Z M 17 15.265625 " clip-rule="nonzero"/></clipPath></defs><rect x="-7.5" width="90" fill="#ffffff" y="-7.5" height="89.999996" fill-opacity="1"/><rect x="-7.5" width="90" fill="#e4067e" y="-7.5" height="89.999996" fill-opacity="1"/><g clip-path="url(#788bfbdbfd)"><path fill="#000000" d="M 69.503906 55.988281 L 63.386719 50.957031 C 63.285156 50.90625 63.234375 50.855469 63.132812 50.804688 C 63.132812 50.703125 63.183594 50.601562 63.183594 50.503906 L 63.183594 24.828125 C 63.183594 23.773438 62.375 22.964844 61.363281 22.816406 L 59.339844 24.828125 L 61.109375 24.828125 L 61.109375 50.503906 L 14.644531 50.503906 L 14.644531 38.621094 C 14.238281 38.472656 13.882812 38.269531 13.480469 38.070312 L 12.621094 38.925781 L 12.621094 50.503906 C 12.621094 50.601562 12.621094 50.703125 12.671875 50.804688 C 12.570312 50.855469 12.519531 50.90625 12.417969 50.957031 L 6.300781 55.988281 C 5.644531 56.542969 5.390625 57.398438 5.695312 58.203125 C 5.996094 59.011719 6.753906 59.515625 7.613281 59.515625 L 68.289062 59.515625 C 69.148438 59.515625 69.910156 58.960938 70.210938 58.203125 C 70.414062 57.449219 70.160156 56.542969 69.503906 55.988281 Z M 7.5625 57.550781 L 13.683594 52.515625 L 62.121094 52.515625 L 68.238281 57.550781 Z M 7.5625 57.550781 " fill-opacity="1" fill-rule="nonzero"/></g><g clip-path="url(#6830fe8f5f)"><path fill="#000000" d="M 6.554688 41.691406 C 6.804688 41.691406 7.058594 41.59375 7.261719 41.390625 L 13.226562 35.449219 C 15.097656 36.859375 17.324219 37.664062 19.699219 37.664062 C 22.53125 37.664062 25.210938 36.558594 27.183594 34.542969 C 31.328125 30.417969 31.328125 23.722656 27.183594 19.59375 C 25.160156 17.578125 22.53125 16.472656 19.699219 16.472656 C 16.867188 16.472656 14.1875 17.578125 12.214844 19.59375 C 8.222656 23.570312 8.070312 29.964844 11.761719 34.089844 L 5.84375 39.980469 C 5.441406 40.382812 5.441406 40.988281 5.84375 41.390625 C 6.046875 41.59375 6.300781 41.691406 6.554688 41.691406 Z M 13.632812 21.054688 C 15.300781 19.390625 17.523438 18.535156 19.699219 18.535156 C 21.925781 18.535156 24.097656 19.390625 25.765625 21.054688 C 29.105469 24.375 29.105469 29.8125 25.765625 33.136719 C 24.097656 34.796875 21.875 35.652344 19.699219 35.652344 C 17.472656 35.652344 15.300781 34.796875 13.632812 33.136719 C 10.242188 29.8125 10.242188 24.375 13.632812 21.054688 Z M 13.632812 21.054688 " fill-opacity="1" fill-rule="nonzero"/></g><g clip-path="url(#b4f5497085)"><path fill="#000000" d="M 24.753906 39.929688 C 24.503906 39.929688 24.25 40.03125 24.046875 40.234375 L 19.699219 45.066406 L 19.699219 39.679688 C 18.992188 39.679688 18.335938 39.628906 17.675781 39.527344 L 17.675781 47.480469 C 17.675781 48.035156 18.132812 48.488281 18.6875 48.488281 L 58.128906 48.488281 C 58.683594 48.488281 59.136719 48.035156 59.136719 47.480469 C 59.136719 46.929688 58.683594 46.476562 58.128906 46.476562 L 57.621094 46.476562 L 57.621094 33.890625 C 57.621094 32.78125 56.710938 31.875 55.597656 31.875 L 53.578125 31.875 C 52.464844 31.875 51.554688 32.78125 51.554688 33.890625 L 51.554688 46.476562 L 49.53125 46.476562 L 49.53125 37.917969 C 49.53125 36.808594 48.621094 35.902344 47.507812 35.902344 L 45.488281 35.902344 C 44.375 35.902344 43.464844 36.808594 43.464844 37.917969 L 43.464844 46.476562 L 41.441406 46.476562 L 41.441406 41.945312 C 41.441406 40.835938 40.53125 39.929688 39.417969 39.929688 L 37.394531 39.929688 C 36.285156 39.929688 35.375 40.835938 35.375 41.945312 L 35.375 46.476562 L 21.113281 46.476562 L 25.160156 41.945312 L 31.835938 41.945312 C 32.085938 41.945312 32.339844 41.84375 32.542969 41.644531 L 42.855469 31.375 L 49.53125 31.375 C 49.785156 31.375 50.039062 31.273438 50.238281 31.070312 L 62.679688 18.6875 L 62.679688 19.792969 C 62.679688 20.347656 63.132812 20.800781 63.6875 20.800781 C 64.246094 20.800781 64.699219 20.347656 64.699219 19.792969 L 64.699219 16.269531 C 64.699219 16.269531 64.699219 16.21875 64.699219 16.21875 C 64.699219 16.21875 64.699219 16.171875 64.699219 16.171875 C 64.699219 16.070312 64.648438 16.019531 64.648438 15.917969 C 64.597656 15.816406 64.550781 15.765625 64.5 15.667969 C 64.5 15.667969 64.449219 15.617188 64.449219 15.617188 C 64.398438 15.566406 64.347656 15.515625 64.246094 15.414062 C 64.195312 15.363281 64.09375 15.3125 63.992188 15.3125 C 63.992188 15.3125 63.941406 15.3125 63.941406 15.3125 C 63.839844 15.3125 63.789062 15.265625 63.6875 15.265625 L 59.644531 15.265625 C 59.089844 15.265625 58.632812 15.71875 58.632812 16.269531 C 58.632812 16.824219 59.089844 17.277344 59.644531 17.277344 L 61.261719 17.277344 L 49.128906 29.359375 L 42.453125 29.359375 C 42.199219 29.359375 41.945312 29.460938 41.746094 29.660156 L 31.429688 39.929688 Z M 53.578125 33.890625 L 55.597656 33.890625 L 55.597656 46.476562 L 53.578125 46.476562 Z M 45.488281 37.917969 L 47.507812 37.917969 L 47.507812 46.476562 L 45.488281 46.476562 Z M 37.394531 41.945312 L 39.417969 41.945312 L 39.417969 46.476562 L 37.394531 46.476562 Z M 37.394531 41.945312 " fill-opacity="1" fill-rule="nonzero"/></g><path fill="#000000" d="M 52.816406 22.816406 L 31.582031 22.816406 C 31.835938 23.46875 31.984375 24.125 32.136719 24.828125 L 50.796875 24.828125 Z M 52.816406 22.816406 " fill-opacity="1" fill-rule="nonzero"/><path stroke-linecap="butt" transform="matrix(0, 0.75, -0.75, 0, 1.125001, -0.000001)" fill="none" stroke-linejoin="miter" d="M 0.00000133333 1.500002 L 100.00001 1.500002 " stroke="#000000" stroke-width="3" stroke-opacity="1" stroke-miterlimit="4"/><path stroke-linecap="butt" transform="matrix(0.75, 0, 0, 0.75, 0.0000015, -1.125001)" fill="none" stroke-linejoin="miter" d="M -0.000002 1.500001 L 100.000006 1.500001 " stroke="#000000" stroke-width="3" stroke-opacity="1" stroke-miterlimit="4"/><path stroke-linecap="butt" transform="matrix(0, 0.75, -0.75, 0, 76.124995, -0.000001)" fill="none" stroke-linejoin="miter" d="M 0.00000133333 1.499994 L 100.00001 1.499994 " stroke="#000000" stroke-width="3" stroke-opacity="1" stroke-miterlimit="4"/><path stroke-linecap="butt" transform="matrix(-0.75, 0, 0, -0.75, 74.999995, 76.124993)" fill="none" stroke-linejoin="miter" d="M -0.00000616667 1.49999 L 100.000002 1.49999 " stroke="#000000" stroke-width="3" stroke-opacity="1" stroke-miterlimit="4"/></svg>