<svg xmlns="http://www.w3.org/2000/svg" xmlns:xlink="http://www.w3.org/1999/xlink" width="100" zoomAndPan="magnify" viewBox="0 0 75 74.999997" height="100" preserveAspectRatio="xMidYMid meet" version="1.0"><defs><clipPath id="036859909f"><path d="M 5.195312 5.839844 L 69.695312 5.839844 L 69.695312 68.839844 L 5.195312 68.839844 Z M 5.195312 5.839844 " clip-rule="nonzero"/></clipPath></defs><rect x="-7.5" width="90" fill="#ffffff" y="-7.5" height="89.999996" fill-opacity="1"/><rect x="-7.5" width="90" fill="#4dbed2" y="-7.5" height="89.999996" fill-opacity="1"/><path stroke-linecap="butt" transform="matrix(0, 0.75, -0.75, 0, 1.125001, -0.000001)" fill="none" stroke-linejoin="miter" d="M 0.00000133333 1.500002 L 100.00001 1.500002 " stroke="#000000" stroke-width="3" stroke-opacity="1" stroke-miterlimit="4"/><path stroke-linecap="butt" transform="matrix(0.75, 0, 0, 0.75, 0.0000015, -1.125001)" fill="none" stroke-linejoin="miter" d="M -0.000002 1.500001 L 100.000006 1.500001 " stroke="#000000" stroke-width="3" stroke-opacity="1" stroke-miterlimit="4"/><path stroke-linecap="butt" transform="matrix(0, 0.75, -0.75, 0, 76.124995, -0.000001)" fill="none" stroke-linejoin="miter" d="M 0.00000133333 1.499994 L 100.00001 1.499994 " stroke="#000000" stroke-width="3" stroke-opacity="1" stroke-miterlimit="4"/><path stroke-linecap="butt" transform="matrix(-0.75, 0, 0, -0.75, 74.999995, 76.124993)" fill="none" stroke-linejoin="miter" d="M -0.00000616667 1.49999 L 100.000002 1.49999 " stroke="#000000" stroke-width="3" stroke-opacity="1" stroke-miterlimit="4"/><g clip-path="url(#036859909f)"><path fill="#000000" d="M 65.464844 5.835938 L 10.617188 5.835938 C 7.632812 5.835938 5.203125 8.253906 5.203125 11.226562 L 5.203125 47.070312 C 5.203125 50.042969 7.632812 52.464844 10.617188 52.464844 L 28.414062 52.464844 C 28.378906 55.949219 27.527344 59.476562 26.582031 61.554688 L 22.800781 61.554688 C 20.789062 61.554688 19.148438 63.1875 19.148438 65.195312 C 19.148438 67.203125 20.789062 68.835938 22.800781 68.835938 L 52.089844 68.835938 C 54.101562 68.835938 55.742188 67.203125 55.742188 65.195312 C 55.742188 63.1875 54.101562 61.554688 52.089844 61.554688 L 48.300781 61.554688 C 47.308594 59.4375 46.40625 55.898438 46.335938 52.464844 L 64.273438 52.464844 C 67.257812 52.464844 69.683594 50.042969 69.683594 47.070312 L 69.683594 10.039062 C 69.683594 7.71875 67.792969 5.835938 65.464844 5.835938 Z M 10.617188 7.65625 L 65.464844 7.65625 C 66.785156 7.65625 67.855469 8.722656 67.855469 10.039062 L 67.855469 41.726562 L 22.242188 41.726562 L 22.597656 41.367188 C 23.007812 40.960938 23.234375 40.417969 23.234375 39.835938 C 23.234375 39.707031 23.222656 39.578125 23.199219 39.453125 L 24.613281 38.042969 C 26.285156 39.113281 28.273438 39.742188 30.40625 39.742188 C 36.320312 39.742188 41.128906 34.945312 41.128906 29.050781 C 41.128906 23.15625 36.320312 18.363281 30.40625 18.363281 C 27.449219 18.363281 24.769531 19.558594 22.824219 21.496094 L 16.902344 21.496094 L 16.902344 16.800781 C 17.976562 16.425781 18.75 15.40625 18.75 14.207031 C 18.75 12.6875 17.511719 11.453125 15.988281 11.453125 C 14.464844 11.453125 13.226562 12.6875 13.226562 14.207031 C 13.226562 15.40625 14 16.425781 15.074219 16.800781 L 15.074219 22.40625 C 15.074219 22.910156 15.484375 23.316406 15.988281 23.316406 L 21.359375 23.316406 C 20.453125 24.734375 19.871094 26.375 19.71875 28.140625 L 15.082031 28.140625 C 14.703125 27.070312 13.679688 26.296875 12.476562 26.296875 C 10.953125 26.296875 9.714844 27.535156 9.714844 29.050781 C 9.714844 30.570312 10.953125 31.804688 12.476562 31.804688 C 13.679688 31.804688 14.703125 31.03125 15.082031 29.960938 L 19.71875 29.960938 C 19.871094 31.742188 20.460938 33.398438 21.382812 34.820312 L 19.96875 36.234375 C 19.289062 36.113281 18.566406 36.308594 18.046875 36.832031 L 13.132812 41.726562 L 7.03125 41.726562 L 7.03125 11.226562 C 7.03125 9.257812 8.640625 7.65625 10.617188 7.65625 Z M 12.527344 44.902344 L 19.335938 38.117188 C 19.402344 38.050781 19.492188 38.019531 19.582031 38.019531 C 19.671875 38.019531 19.757812 38.050781 19.824219 38.117188 L 21.308594 39.59375 C 21.394531 39.679688 21.40625 39.785156 21.40625 39.835938 C 21.40625 39.890625 21.394531 39.996094 21.308594 40.082031 L 14.5 46.867188 C 14.367188 47 14.144531 47 14.011719 46.867188 L 12.527344 45.390625 C 12.398438 45.257812 12.398438 45.035156 12.527344 44.902344 Z M 30.40625 20.183594 C 35.3125 20.183594 39.304688 24.160156 39.304688 29.050781 C 39.304688 33.941406 35.3125 37.917969 30.40625 37.917969 C 25.5 37.917969 21.507812 33.941406 21.507812 29.050781 C 21.507812 24.160156 25.5 20.183594 30.40625 20.183594 Z M 23.15625 36.921875 L 22.183594 37.890625 L 21.535156 37.246094 L 22.507812 36.277344 C 22.714844 36.5 22.929688 36.714844 23.15625 36.921875 Z M 15.988281 15.140625 C 15.472656 15.140625 15.050781 14.722656 15.050781 14.207031 C 15.050781 13.691406 15.472656 13.273438 15.988281 13.273438 C 16.503906 13.273438 16.921875 13.691406 16.921875 14.207031 C 16.921875 14.722656 16.503906 15.140625 15.988281 15.140625 Z M 13.414062 29.050781 C 13.414062 29.566406 12.992188 29.984375 12.476562 29.984375 C 11.960938 29.984375 11.542969 29.566406 11.542969 29.050781 C 11.542969 28.539062 11.960938 28.121094 12.476562 28.121094 C 12.992188 28.121094 13.414062 28.539062 13.414062 29.050781 Z M 53.914062 65.195312 C 53.914062 66.199219 53.09375 67.011719 52.089844 67.011719 L 22.800781 67.011719 C 21.796875 67.011719 20.976562 66.199219 20.976562 65.195312 C 20.976562 64.191406 21.796875 63.375 22.800781 63.375 L 52.089844 63.375 C 53.09375 63.375 53.914062 64.191406 53.914062 65.195312 Z M 46.304688 61.554688 L 28.566406 61.554688 C 29.566406 59.019531 30.207031 55.574219 30.242188 52.464844 L 44.511719 52.464844 C 44.570312 55.539062 45.253906 58.980469 46.304688 61.554688 Z M 64.273438 50.640625 L 10.617188 50.640625 C 8.640625 50.640625 7.03125 49.039062 7.03125 47.070312 L 7.03125 43.546875 L 11.304688 43.546875 L 11.238281 43.617188 C 10.390625 44.460938 10.390625 45.832031 11.238281 46.679688 L 12.71875 48.15625 C 13.140625 48.578125 13.699219 48.789062 14.253906 48.789062 C 14.8125 48.789062 15.367188 48.578125 15.789062 48.15625 L 20.414062 43.546875 L 67.855469 43.546875 L 67.855469 47.070312 C 67.855469 49.039062 66.25 50.640625 64.273438 50.640625 Z M 40.832031 47.09375 C 40.832031 47.597656 40.421875 48.003906 39.917969 48.003906 L 34.972656 48.003906 C 34.46875 48.003906 34.058594 47.597656 34.058594 47.09375 C 34.058594 46.589844 34.46875 46.183594 34.972656 46.183594 L 39.917969 46.183594 C 40.421875 46.183594 40.832031 46.589844 40.832031 47.09375 Z M 49.785156 27.273438 C 49.785156 29.664062 49.058594 31.96875 47.683594 33.933594 C 47.507812 34.1875 47.222656 34.324219 46.933594 34.324219 C 46.753906 34.324219 46.570312 34.269531 46.414062 34.160156 C 46 33.875 45.898438 33.304688 46.183594 32.894531 C 47.34375 31.234375 47.957031 29.289062 47.957031 27.273438 C 47.957031 26.769531 48.367188 26.363281 48.871094 26.363281 C 49.375 26.363281 49.785156 26.769531 49.785156 27.273438 Z M 45.496094 35.136719 C 45.8125 35.527344 45.746094 36.101562 45.355469 36.414062 C 43.714844 37.722656 41.757812 38.566406 39.695312 38.859375 C 39.652344 38.867188 39.609375 38.871094 39.566406 38.871094 C 39.117188 38.871094 38.726562 38.542969 38.664062 38.085938 C 38.59375 37.589844 38.9375 37.128906 39.4375 37.058594 C 41.175781 36.808594 42.828125 36.097656 44.210938 34.992188 C 44.605469 34.679688 45.183594 34.742188 45.496094 35.136719 Z M 48.871094 20.53125 C 49.375 20.53125 49.785156 20.9375 49.785156 21.441406 L 49.785156 23.703125 C 49.785156 24.207031 49.375 24.613281 48.871094 24.613281 C 48.367188 24.613281 47.957031 24.207031 47.957031 23.703125 L 47.957031 21.441406 C 47.957031 20.9375 48.367188 20.53125 48.871094 20.53125 Z M 40.625 10.917969 C 40.785156 10.441406 41.304688 10.1875 41.78125 10.347656 C 45.429688 11.578125 48.25 14.515625 49.324219 18.203125 C 49.464844 18.683594 49.183594 19.191406 48.699219 19.332031 C 48.617188 19.355469 48.53125 19.367188 48.445312 19.367188 C 48.050781 19.367188 47.683594 19.109375 47.570312 18.710938 C 46.660156 15.59375 44.28125 13.113281 41.195312 12.074219 C 40.71875 11.914062 40.460938 11.394531 40.625 10.917969 Z M 34.800781 11.101562 C 34.691406 10.613281 35 10.125 35.492188 10.015625 C 36.324219 9.832031 37.183594 9.738281 38.042969 9.738281 C 38.546875 9.738281 38.957031 10.144531 38.957031 10.648438 C 38.957031 11.148438 38.546875 11.558594 38.042969 11.558594 C 37.316406 11.558594 36.59375 11.636719 35.890625 11.792969 C 35.824219 11.808594 35.757812 11.816406 35.691406 11.816406 C 35.273438 11.816406 34.894531 11.527344 34.800781 11.101562 Z M 27.457031 16.386719 C 28.492188 14.25 30.128906 12.492188 32.191406 11.300781 C 32.628906 11.050781 33.1875 11.199219 33.4375 11.632812 C 33.691406 12.070312 33.542969 12.625 33.105469 12.878906 C 31.359375 13.886719 29.976562 15.371094 29.101562 17.175781 C 28.945312 17.503906 28.617188 17.691406 28.277344 17.691406 C 28.144531 17.691406 28.011719 17.664062 27.882812 17.601562 C 27.429688 17.382812 27.238281 16.839844 27.457031 16.386719 Z M 41.792969 31.925781 C 42.550781 31.3125 43.15625 30.527344 43.542969 29.644531 C 43.746094 29.183594 44.285156 28.972656 44.746094 29.175781 C 45.210938 29.375 45.421875 29.914062 45.21875 30.375 C 44.714844 31.523438 43.925781 32.546875 42.941406 33.339844 C 42.773438 33.476562 42.570312 33.542969 42.371094 33.542969 C 42.101562 33.542969 41.839844 33.425781 41.65625 33.203125 C 41.339844 32.8125 41.402344 32.242188 41.792969 31.925781 Z M 34.175781 15.667969 C 34.507812 16.046875 34.472656 16.621094 34.09375 16.953125 C 33.871094 17.148438 33.660156 17.363281 33.46875 17.585938 C 33.289062 17.800781 33.03125 17.90625 32.773438 17.90625 C 32.5625 17.90625 32.351562 17.835938 32.179688 17.691406 C 31.796875 17.367188 31.75 16.792969 32.074219 16.410156 C 32.324219 16.117188 32.597656 15.839844 32.886719 15.585938 C 33.265625 15.253906 33.84375 15.292969 34.175781 15.667969 Z M 36.367188 15.699219 C 35.882812 15.84375 35.375 15.566406 35.234375 15.082031 C 35.089844 14.601562 35.367188 14.09375 35.851562 13.953125 C 37.847656 13.367188 40.035156 13.617188 41.851562 14.636719 C 42.292969 14.882812 42.449219 15.4375 42.203125 15.875 C 42.035156 16.171875 41.722656 16.339844 41.402344 16.339844 C 41.253906 16.339844 41.097656 16.300781 40.957031 16.222656 C 39.566406 15.445312 37.894531 15.253906 36.367188 15.699219 Z M 45.867188 25.972656 L 45.867188 27.273438 C 45.867188 27.777344 45.460938 28.183594 44.953125 28.183594 C 44.449219 28.183594 44.042969 27.777344 44.042969 27.273438 L 44.042969 25.972656 C 44.042969 25.472656 44.449219 25.0625 44.953125 25.0625 C 45.460938 25.0625 45.867188 25.472656 45.867188 25.972656 Z M 44.390625 16.898438 C 45.359375 18.234375 45.867188 19.804688 45.867188 21.441406 L 45.867188 22.988281 C 45.867188 23.492188 45.460938 23.898438 44.953125 23.898438 C 44.449219 23.898438 44.042969 23.492188 44.042969 22.988281 L 44.042969 21.441406 C 44.042969 20.1875 43.648438 18.988281 42.910156 17.964844 C 42.613281 17.554688 42.707031 16.988281 43.117188 16.691406 C 43.527344 16.398438 44.097656 16.492188 44.390625 16.898438 Z M 41.039062 23.597656 C 40.535156 23.597656 40.125 23.191406 40.125 22.6875 L 40.125 21.441406 C 40.125 20.3125 39.171875 19.363281 38.042969 19.363281 C 37.535156 19.363281 37.128906 18.957031 37.128906 18.453125 C 37.128906 17.949219 37.535156 17.542969 38.042969 17.542969 C 40.160156 17.542969 41.953125 19.328125 41.953125 21.441406 L 41.953125 22.6875 C 41.953125 23.191406 41.542969 23.597656 41.039062 23.597656 Z M 30.40625 36.609375 C 34.585938 36.609375 37.988281 33.21875 37.988281 29.050781 C 37.988281 24.882812 34.585938 21.496094 30.40625 21.496094 C 26.222656 21.496094 22.824219 24.882812 22.824219 29.050781 C 22.824219 33.21875 26.222656 36.609375 30.40625 36.609375 Z M 30.40625 23.316406 C 33.578125 23.316406 36.160156 25.890625 36.160156 29.050781 C 36.160156 32.214844 33.578125 34.785156 30.40625 34.785156 C 27.230469 34.785156 24.648438 32.214844 24.648438 29.050781 C 24.648438 25.890625 27.230469 23.316406 30.40625 23.316406 Z M 30.40625 23.316406 " fill-opacity="1" fill-rule="nonzero"/></g></svg>