<svg xmlns="http://www.w3.org/2000/svg" xmlns:xlink="http://www.w3.org/1999/xlink" width="100" zoomAndPan="magnify" viewBox="0 0 75 74.999997" height="100" preserveAspectRatio="xMidYMid meet" version="1.0"><defs><clipPath id="5d2f056a84"><path d="M 25 6 L 69.808594 6 L 69.808594 43 L 25 43 Z M 25 6 " clip-rule="nonzero"/></clipPath><clipPath id="93fe264a61"><path d="M 29 60 L 49 60 L 49 68.914062 L 29 68.914062 Z M 29 60 " clip-rule="nonzero"/></clipPath><clipPath id="bf506f9c84"><path d="M 5.308594 47 L 46 47 L 46 61 L 5.308594 61 Z M 5.308594 47 " clip-rule="nonzero"/></clipPath><clipPath id="2dd94a11b1"><path d="M 49 60 L 69 60 L 69 68.914062 L 49 68.914062 Z M 49 60 " clip-rule="nonzero"/></clipPath></defs><rect x="-7.5" width="90" fill="#ffffff" y="-7.5" height="89.999996" fill-opacity="1"/><rect x="-7.5" width="90" fill="#4dbed2" y="-7.5" height="89.999996" fill-opacity="1"/><path stroke-linecap="butt" transform="matrix(0, 0.75, -0.75, 0, 1.125001, -0.000001)" fill="none" stroke-linejoin="miter" d="M 0.00000133333 1.500002 L 100.00001 1.500002 " stroke="#000000" stroke-width="3" stroke-opacity="1" stroke-miterlimit="4"/><path stroke-linecap="butt" transform="matrix(0.75, 0, 0, 0.75, 0.0000015, -1.125001)" fill="none" stroke-linejoin="miter" d="M -0.000002 1.500001 L 100.000006 1.500001 " stroke="#000000" stroke-width="3" stroke-opacity="1" stroke-miterlimit="4"/><path stroke-linecap="butt" transform="matrix(0, 0.75, -0.75, 0, 76.124995, -0.000001)" fill="none" stroke-linejoin="miter" d="M 0.00000133333 1.499994 L 100.00001 1.499994 " stroke="#000000" stroke-width="3" stroke-opacity="1" stroke-miterlimit="4"/><path stroke-linecap="butt" transform="matrix(-0.75, 0, 0, -0.75, 74.999995, 76.124993)" fill="none" stroke-linejoin="miter" d="M -0.00000616667 1.49999 L 100.000002 1.49999 " stroke="#000000" stroke-width="3" stroke-opacity="1" stroke-miterlimit="4"/><path fill="#000000" d="M 11.941406 21.222656 C 11.941406 21.734375 11.992188 22.242188 12.09375 22.746094 C 12.195312 23.25 12.34375 23.738281 12.539062 24.210938 C 12.738281 24.6875 12.980469 25.136719 13.265625 25.5625 C 13.550781 25.988281 13.875 26.382812 14.242188 26.746094 C 14.605469 27.109375 15 27.433594 15.429688 27.71875 C 15.859375 28.003906 16.308594 28.242188 16.785156 28.4375 C 17.261719 28.636719 17.753906 28.785156 18.257812 28.882812 C 18.761719 28.984375 19.273438 29.035156 19.789062 29.035156 C 20.304688 29.035156 20.8125 28.984375 21.320312 28.882812 C 21.824219 28.785156 22.316406 28.636719 22.792969 28.4375 C 23.265625 28.242188 23.71875 28.003906 24.148438 27.71875 C 24.578125 27.433594 24.972656 27.109375 25.335938 26.746094 C 25.703125 26.382812 26.027344 25.988281 26.3125 25.5625 C 26.597656 25.136719 26.839844 24.6875 27.039062 24.210938 C 27.234375 23.738281 27.382812 23.25 27.484375 22.746094 C 27.585938 22.242188 27.636719 21.734375 27.636719 21.222656 C 27.636719 20.710938 27.585938 20.203125 27.484375 19.699219 C 27.382812 19.195312 27.234375 18.707031 27.039062 18.234375 C 26.839844 17.761719 26.597656 17.308594 26.3125 16.882812 C 26.027344 16.457031 25.703125 16.0625 25.335938 15.699219 C 24.972656 15.339844 24.578125 15.015625 24.148438 14.730469 C 23.71875 14.445312 23.265625 14.203125 22.792969 14.007812 C 22.316406 13.8125 21.824219 13.664062 21.320312 13.5625 C 20.8125 13.464844 20.304688 13.414062 19.789062 13.414062 C 19.273438 13.414062 18.765625 13.464844 18.257812 13.566406 C 17.753906 13.664062 17.261719 13.8125 16.789062 14.011719 C 16.3125 14.207031 15.859375 14.449219 15.433594 14.730469 C 15.003906 15.015625 14.609375 15.339844 14.242188 15.703125 C 13.878906 16.066406 13.554688 16.460938 13.269531 16.886719 C 12.980469 17.3125 12.738281 17.761719 12.542969 18.234375 C 12.34375 18.710938 12.195312 19.199219 12.09375 19.699219 C 11.992188 20.203125 11.941406 20.710938 11.941406 21.222656 Z M 11.941406 21.222656 " fill-opacity="1" fill-rule="nonzero"/><path fill="#000000" d="M 10.003906 45.378906 C 10.34375 45.378906 10.667969 45.3125 10.980469 45.183594 C 11.292969 45.054688 11.566406 44.871094 11.808594 44.632812 C 12.046875 44.394531 12.230469 44.121094 12.359375 43.808594 C 12.488281 43.5 12.554688 43.175781 12.554688 42.839844 L 12.554688 37.925781 C 12.554688 37.757812 12.613281 37.617188 12.734375 37.496094 C 12.851562 37.378906 12.996094 37.320312 13.164062 37.320312 C 13.332031 37.320312 13.476562 37.378906 13.597656 37.496094 C 13.714844 37.617188 13.777344 37.757812 13.777344 37.925781 L 13.777344 51.53125 L 25.925781 51.53125 L 25.925781 37.003906 C 25.925781 36.835938 25.984375 36.691406 26.105469 36.574219 C 26.222656 36.457031 26.367188 36.394531 26.535156 36.394531 L 35.765625 36.394531 C 36.175781 36.398438 36.570312 36.320312 36.945312 36.164062 C 37.324219 36.007812 37.660156 35.785156 37.949219 35.496094 C 38.238281 35.210938 38.460938 34.875 38.621094 34.5 C 38.777344 34.125 38.855469 33.730469 38.855469 33.324219 C 38.855469 32.914062 38.777344 32.523438 38.621094 32.148438 C 38.460938 31.769531 38.238281 31.4375 37.949219 31.148438 C 37.660156 30.863281 37.324219 30.640625 36.945312 30.484375 C 36.570312 30.328125 36.175781 30.25 35.765625 30.25 L 10.003906 30.25 C 9.664062 30.25 9.339844 30.316406 9.027344 30.445312 C 8.714844 30.574219 8.441406 30.757812 8.203125 30.996094 C 7.960938 31.234375 7.777344 31.507812 7.648438 31.816406 C 7.519531 32.128906 7.453125 32.453125 7.453125 32.789062 L 7.453125 42.835938 C 7.453125 43.175781 7.519531 43.496094 7.648438 43.808594 C 7.777344 44.121094 7.960938 44.394531 8.199219 44.632812 C 8.441406 44.871094 8.714844 45.054688 9.027344 45.183594 C 9.339844 45.3125 9.664062 45.378906 10.003906 45.378906 Z M 10.003906 45.378906 " fill-opacity="1" fill-rule="nonzero"/><path fill="#000000" d="M 55.386719 20.707031 C 55.386719 21.121094 55.304688 21.519531 55.148438 21.902344 C 54.988281 22.285156 54.761719 22.621094 54.46875 22.914062 C 54.175781 23.207031 53.835938 23.433594 53.449219 23.589844 C 53.066406 23.75 52.667969 23.828125 52.25 23.828125 C 51.835938 23.828125 51.4375 23.75 51.050781 23.589844 C 50.667969 23.433594 50.328125 23.207031 50.035156 22.914062 C 49.742188 22.621094 49.515625 22.285156 49.355469 21.902344 C 49.195312 21.519531 49.117188 21.121094 49.117188 20.707031 C 49.117188 20.292969 49.195312 19.894531 49.355469 19.511719 C 49.515625 19.132812 49.742188 18.792969 50.035156 18.5 C 50.328125 18.207031 50.667969 17.984375 51.050781 17.824219 C 51.4375 17.667969 51.835938 17.585938 52.25 17.585938 C 52.667969 17.585938 53.066406 17.667969 53.449219 17.824219 C 53.835938 17.984375 54.175781 18.207031 54.46875 18.5 C 54.761719 18.792969 54.988281 19.132812 55.148438 19.511719 C 55.304688 19.894531 55.386719 20.292969 55.386719 20.707031 Z M 55.386719 20.707031 " fill-opacity="1" fill-rule="nonzero"/><g clip-path="url(#5d2f056a84)"><path fill="#000000" d="M 32.460938 18.664062 C 32.460938 18.832031 32.402344 18.976562 32.285156 19.09375 C 32.164062 19.210938 32.019531 19.273438 31.851562 19.273438 C 31.683594 19.273438 31.539062 19.210938 31.421875 19.09375 C 31.300781 18.976562 31.242188 18.832031 31.242188 18.664062 L 31.242188 6.027344 L 25.011719 6.027344 L 25.011719 13.859375 C 25.308594 14.066406 25.589844 14.289062 25.859375 14.53125 C 26.128906 14.769531 26.378906 15.027344 26.617188 15.296875 C 26.855469 15.566406 27.078125 15.851562 27.28125 16.148438 C 27.484375 16.445312 27.671875 16.753906 27.839844 17.074219 C 28.003906 17.394531 28.152344 17.722656 28.277344 18.058594 C 28.40625 18.394531 28.511719 18.738281 28.597656 19.085938 C 28.683594 19.4375 28.75 19.789062 28.792969 20.148438 C 28.835938 20.503906 28.855469 20.863281 28.855469 21.222656 C 28.855469 21.582031 28.835938 21.941406 28.792969 22.300781 C 28.75 22.65625 28.683594 23.011719 28.597656 23.359375 C 28.511719 23.710938 28.40625 24.050781 28.277344 24.390625 C 28.152344 24.726562 28.003906 25.054688 27.839844 25.375 C 27.671875 25.691406 27.484375 26 27.28125 26.296875 C 27.078125 26.597656 26.855469 26.878906 26.617188 27.152344 C 26.378906 27.421875 26.128906 27.675781 25.859375 27.917969 C 25.589844 28.15625 25.308594 28.382812 25.011719 28.589844 L 25.011719 29.035156 L 35.761719 29.035156 C 36.042969 29.035156 36.324219 29.0625 36.601562 29.117188 C 36.878906 29.171875 37.148438 29.253906 37.410156 29.359375 C 37.671875 29.46875 37.917969 29.601562 38.15625 29.757812 C 38.390625 29.914062 38.609375 30.089844 38.808594 30.289062 C 39.007812 30.488281 39.1875 30.707031 39.34375 30.941406 C 39.5 31.175781 39.632812 31.421875 39.742188 31.683594 C 39.851562 31.941406 39.929688 32.210938 39.988281 32.488281 C 40.042969 32.761719 40.070312 33.042969 40.070312 33.324219 C 40.070312 33.605469 40.042969 33.882812 39.988281 34.160156 C 39.929688 34.4375 39.851562 34.703125 39.742188 34.964844 C 39.632812 35.226562 39.5 35.472656 39.34375 35.707031 C 39.1875 35.941406 39.007812 36.15625 38.808594 36.355469 C 38.609375 36.554688 38.390625 36.734375 38.15625 36.890625 C 37.917969 37.046875 37.671875 37.179688 37.410156 37.285156 C 37.148438 37.394531 36.878906 37.476562 36.601562 37.53125 C 36.324219 37.585938 36.042969 37.613281 35.761719 37.613281 L 27.144531 37.613281 L 27.144531 42.3125 L 69.761719 42.3125 L 69.761719 6.027344 L 32.460938 6.027344 Z M 32.460938 23.914062 C 32.460938 24.082031 32.402344 24.226562 32.285156 24.34375 C 32.164062 24.460938 32.019531 24.523438 31.851562 24.523438 C 31.683594 24.523438 31.539062 24.460938 31.421875 24.34375 C 31.300781 24.226562 31.242188 24.082031 31.242188 23.914062 L 31.242188 23.234375 C 31.242188 23.066406 31.300781 22.921875 31.421875 22.804688 C 31.539062 22.683594 31.683594 22.625 31.851562 22.625 C 32.019531 22.625 32.164062 22.683594 32.285156 22.804688 C 32.402344 22.921875 32.460938 23.066406 32.460938 23.234375 Z M 38.859375 12.726562 C 38.859375 12.441406 38.996094 12.25 39.269531 12.152344 L 39.757812 11.984375 C 41.765625 11.285156 43.820312 10.757812 45.917969 10.402344 C 48.015625 10.046875 50.125 9.871094 52.253906 9.871094 C 54.382812 9.871094 56.496094 10.046875 58.59375 10.402344 C 60.691406 10.757812 62.742188 11.285156 64.75 11.984375 L 65.238281 12.152344 C 65.511719 12.25 65.648438 12.441406 65.648438 12.726562 L 65.648438 18.535156 C 65.652344 19.570312 65.578125 20.605469 65.425781 21.628906 C 65.273438 22.65625 65.042969 23.667969 64.742188 24.660156 C 64.4375 25.652344 64.0625 26.617188 63.613281 27.550781 C 63.164062 28.488281 62.648438 29.386719 62.0625 30.246094 C 61.480469 31.105469 60.835938 31.917969 60.128906 32.679688 C 59.421875 33.441406 58.664062 34.148438 57.851562 34.800781 C 57.039062 35.449219 56.183594 36.035156 55.28125 36.558594 C 54.382812 37.082031 53.445312 37.535156 52.480469 37.917969 C 52.40625 37.945312 52.328125 37.960938 52.25 37.960938 C 52.171875 37.960938 52.097656 37.945312 52.023438 37.917969 C 51.054688 37.535156 50.121094 37.082031 49.222656 36.558594 C 48.320312 36.035156 47.464844 35.449219 46.65625 34.800781 C 45.84375 34.148438 45.085938 33.441406 44.378906 32.679688 C 43.671875 31.914062 43.027344 31.105469 42.445312 30.246094 C 41.859375 29.386719 41.34375 28.488281 40.894531 27.550781 C 40.449219 26.617188 40.070312 25.652344 39.765625 24.660156 C 39.464844 23.667969 39.234375 22.660156 39.082031 21.632812 C 38.933594 20.605469 38.855469 19.574219 38.859375 18.539062 Z M 38.859375 12.726562 " fill-opacity="1" fill-rule="nonzero"/></g><path fill="#000000" d="M 51.640625 36.417969 L 51.640625 24.988281 C 51.277344 24.9375 50.929688 24.839844 50.59375 24.703125 C 50.253906 24.5625 49.941406 24.386719 49.648438 24.167969 C 49.355469 23.953125 49.09375 23.703125 48.863281 23.417969 C 48.632812 23.136719 48.445312 22.832031 48.292969 22.5 C 48.140625 22.171875 48.03125 21.824219 47.964844 21.46875 C 47.898438 21.109375 47.878906 20.75 47.90625 20.386719 C 47.929688 20.027344 48 19.671875 48.117188 19.328125 C 48.230469 18.984375 48.386719 18.65625 48.585938 18.351562 C 48.78125 18.046875 49.015625 17.769531 49.28125 17.519531 C 49.546875 17.273438 49.84375 17.0625 50.164062 16.886719 C 50.484375 16.714844 50.820312 16.582031 51.171875 16.492188 C 51.527344 16.402344 51.886719 16.355469 52.25 16.355469 C 52.617188 16.355469 52.976562 16.402344 53.328125 16.492188 C 53.683594 16.582031 54.019531 16.714844 54.339844 16.886719 C 54.660156 17.0625 54.953125 17.273438 55.222656 17.519531 C 55.488281 17.769531 55.71875 18.046875 55.917969 18.351562 C 56.113281 18.65625 56.269531 18.984375 56.386719 19.328125 C 56.5 19.671875 56.570312 20.027344 56.597656 20.386719 C 56.621094 20.75 56.601562 21.109375 56.539062 21.46875 C 56.472656 21.824219 56.363281 22.171875 56.210938 22.5 C 56.058594 22.832031 55.867188 23.136719 55.640625 23.417969 C 55.410156 23.703125 55.148438 23.953125 54.855469 24.167969 C 54.5625 24.386719 54.246094 24.5625 53.910156 24.703125 C 53.574219 24.839844 53.222656 24.9375 52.863281 24.988281 L 52.863281 36.417969 C 53.722656 36.03125 54.546875 35.585938 55.339844 35.082031 C 56.136719 34.574219 56.890625 34.015625 57.605469 33.40625 C 58.316406 32.792969 58.984375 32.132812 59.601562 31.425781 C 60.21875 30.714844 60.785156 29.96875 61.292969 29.179688 C 61.804688 28.390625 62.253906 27.570312 62.644531 26.714844 C 63.039062 25.863281 63.367188 24.984375 63.628906 24.085938 C 63.894531 23.183594 64.09375 22.269531 64.226562 21.34375 C 64.359375 20.414062 64.421875 19.480469 64.421875 18.542969 L 64.421875 13.160156 L 64.34375 13.132812 C 62.398438 12.457031 60.414062 11.949219 58.382812 11.605469 C 56.355469 11.261719 54.308594 11.089844 52.25 11.089844 C 50.191406 11.089844 48.148438 11.261719 46.117188 11.605469 C 44.085938 11.949219 42.101562 12.457031 40.15625 13.132812 L 40.078125 13.160156 L 40.078125 18.539062 C 40.074219 19.476562 40.140625 20.410156 40.273438 21.339844 C 40.40625 22.269531 40.605469 23.183594 40.867188 24.082031 C 41.132812 24.984375 41.460938 25.859375 41.851562 26.714844 C 42.246094 27.566406 42.695312 28.390625 43.207031 29.179688 C 43.714844 29.96875 44.28125 30.714844 44.898438 31.421875 C 45.515625 32.132812 46.183594 32.792969 46.898438 33.40625 C 47.609375 34.015625 48.367188 34.574219 49.160156 35.082031 C 49.953125 35.585938 50.78125 36.03125 51.640625 36.417969 Z M 51.640625 36.417969 " fill-opacity="1" fill-rule="nonzero"/><path fill="#000000" d="M 65.191406 53.964844 C 65.191406 53.558594 65.152344 53.160156 65.070312 52.761719 C 64.992188 52.367188 64.875 51.980469 64.71875 51.605469 C 64.5625 51.230469 64.371094 50.875 64.148438 50.539062 C 63.921875 50.203125 63.664062 49.890625 63.375 49.605469 C 63.089844 49.320312 62.777344 49.066406 62.4375 48.839844 C 62.101562 48.613281 61.742188 48.425781 61.367188 48.269531 C 60.992188 48.113281 60.605469 48 60.207031 47.917969 C 59.808594 47.839844 59.40625 47.800781 58.996094 47.800781 C 58.589844 47.800781 58.1875 47.839844 57.789062 47.917969 C 57.390625 48 57.003906 48.117188 56.628906 48.269531 C 56.253906 48.425781 55.894531 48.613281 55.558594 48.839844 C 55.21875 49.066406 54.90625 49.320312 54.621094 49.605469 C 54.332031 49.894531 54.074219 50.203125 53.847656 50.539062 C 53.625 50.878906 53.433594 51.234375 53.277344 51.605469 C 53.121094 51.980469 53.003906 52.367188 52.925781 52.761719 C 52.84375 53.160156 52.804688 53.5625 52.804688 53.964844 C 52.804688 54.371094 52.84375 54.769531 52.925781 55.167969 C 53.003906 55.566406 53.121094 55.949219 53.277344 56.324219 C 53.433594 56.699219 53.625 57.054688 53.851562 57.390625 C 54.074219 57.726562 54.332031 58.039062 54.621094 58.324219 C 54.90625 58.609375 55.21875 58.867188 55.558594 59.089844 C 55.898438 59.316406 56.253906 59.503906 56.628906 59.660156 C 57.003906 59.816406 57.390625 59.929688 57.792969 60.011719 C 58.191406 60.089844 58.59375 60.128906 59 60.128906 C 59.40625 60.128906 59.808594 60.089844 60.207031 60.007812 C 60.605469 59.929688 60.992188 59.8125 61.367188 59.65625 C 61.742188 59.503906 62.101562 59.3125 62.4375 59.085938 C 62.777344 58.863281 63.089844 58.605469 63.375 58.320312 C 63.664062 58.035156 63.917969 57.722656 64.144531 57.386719 C 64.371094 57.050781 64.5625 56.695312 64.71875 56.324219 C 64.875 55.949219 64.992188 55.5625 65.070312 55.167969 C 65.148438 54.769531 65.191406 54.371094 65.191406 53.964844 Z M 65.191406 53.964844 " fill-opacity="1" fill-rule="nonzero"/><g clip-path="url(#93fe264a61)"><path fill="#000000" d="M 42.09375 60.761719 C 41.167969 61.152344 40.207031 61.34375 39.203125 61.34375 C 38.199219 61.34375 37.238281 61.152344 36.3125 60.761719 C 35.4375 61.050781 34.621094 61.460938 33.863281 61.992188 C 33.109375 62.523438 32.449219 63.152344 31.878906 63.878906 C 31.3125 64.601562 30.863281 65.394531 30.53125 66.253906 C 30.203125 67.113281 30.003906 68.003906 29.9375 68.921875 L 48.46875 68.921875 C 48.402344 68.003906 48.203125 67.113281 47.871094 66.253906 C 47.542969 65.394531 47.09375 64.601562 46.523438 63.878906 C 45.957031 63.152344 45.296875 62.523438 44.539062 61.992188 C 43.785156 61.460938 42.96875 61.050781 42.09375 60.761719 Z M 42.09375 60.761719 " fill-opacity="1" fill-rule="nonzero"/></g><g clip-path="url(#bf506f9c84)"><path fill="#000000" d="M 33.011719 53.964844 C 33.011719 54.21875 33.027344 54.46875 33.058594 54.71875 C 33.089844 54.96875 33.136719 55.214844 33.195312 55.460938 C 33.257812 55.707031 33.335938 55.945312 33.425781 56.179688 C 33.515625 56.417969 33.621094 56.644531 33.742188 56.867188 C 33.863281 57.089844 33.992188 57.304688 34.140625 57.511719 C 34.285156 57.71875 34.445312 57.914062 34.613281 58.101562 C 34.785156 58.289062 34.964844 58.464844 35.15625 58.628906 C 35.347656 58.792969 35.550781 58.949219 35.761719 59.085938 C 35.972656 59.226562 36.1875 59.355469 36.414062 59.46875 C 36.640625 59.582031 36.875 59.683594 37.113281 59.765625 C 37.351562 59.851562 37.59375 59.921875 37.839844 59.976562 C 38.089844 60.035156 38.339844 60.074219 38.589844 60.097656 C 38.84375 60.125 39.09375 60.132812 39.347656 60.128906 C 39.601562 60.121094 39.855469 60.101562 40.105469 60.066406 C 40.355469 60.027344 40.601562 59.976562 40.847656 59.910156 C 41.09375 59.84375 41.332031 59.761719 41.566406 59.664062 C 41.800781 59.570312 42.027344 59.460938 42.25 59.335938 C 42.46875 59.210938 42.683594 59.074219 42.886719 58.925781 C 43.089844 58.777344 43.285156 58.613281 43.46875 58.441406 C 43.652344 58.265625 43.824219 58.082031 43.984375 57.886719 C 44.148438 57.695312 44.296875 57.488281 44.433594 57.277344 C 44.566406 57.066406 44.691406 56.84375 44.800781 56.617188 C 44.910156 56.390625 45.003906 56.15625 45.085938 55.917969 C 45.164062 55.675781 45.230469 55.433594 45.28125 55.1875 C 45.332031 54.9375 45.363281 54.691406 45.382812 54.4375 C 45.402344 54.1875 45.40625 53.933594 45.398438 53.683594 C 45.386719 53.429688 45.359375 53.179688 45.316406 52.929688 C 45.273438 52.683594 45.214844 52.4375 45.144531 52.195312 C 45.070312 51.953125 44.984375 51.71875 44.882812 51.488281 C 44.78125 51.253906 44.664062 51.03125 44.535156 50.816406 C 44.40625 50.597656 44.265625 50.390625 44.109375 50.191406 C 43.953125 49.992188 43.785156 49.800781 43.609375 49.621094 C 43.429688 49.441406 43.242188 49.273438 43.042969 49.117188 C 42.84375 48.960938 42.636719 48.820312 42.417969 48.6875 C 42.203125 48.558594 41.976562 48.441406 41.746094 48.335938 C 41.515625 48.234375 41.277344 48.144531 41.035156 48.070312 C 40.792969 47.996094 40.550781 47.9375 40.300781 47.890625 C 40.050781 47.847656 39.796875 47.816406 39.546875 47.804688 C 39.292969 47.789062 39.039062 47.792969 38.785156 47.808594 C 38.535156 47.828125 38.28125 47.859375 38.035156 47.90625 C 37.785156 47.953125 37.539062 48.015625 37.300781 48.09375 C 37.058594 48.171875 36.824219 48.265625 36.59375 48.371094 C 36.363281 48.476562 36.140625 48.597656 35.925781 48.730469 C 35.710938 48.863281 35.503906 49.011719 35.308594 49.167969 C 35.109375 49.328125 34.925781 49.5 34.75 49.679688 C 34.574219 49.863281 34.40625 50.054688 34.253906 50.253906 C 34.101562 50.457031 33.964844 50.667969 33.835938 50.886719 C 33.710938 51.105469 33.597656 51.328125 33.5 51.5625 C 33.453125 51.546875 33.40625 51.539062 33.355469 51.535156 L 5.933594 51.535156 C 5.765625 51.535156 5.621094 51.59375 5.503906 51.710938 C 5.382812 51.832031 5.324219 51.972656 5.324219 52.140625 C 5.324219 52.308594 5.382812 52.453125 5.503906 52.570312 C 5.621094 52.691406 5.765625 52.75 5.933594 52.75 L 33.132812 52.75 C 33.054688 53.152344 33.011719 53.554688 33.011719 53.964844 Z M 33.011719 53.964844 " fill-opacity="1" fill-rule="nonzero"/></g><g clip-path="url(#2dd94a11b1)"><path fill="#000000" d="M 61.886719 60.761719 C 60.964844 61.152344 60 61.34375 58.996094 61.34375 C 57.996094 61.34375 57.03125 61.152344 56.109375 60.761719 C 55.230469 61.050781 54.414062 61.460938 53.660156 61.992188 C 52.902344 62.523438 52.242188 63.152344 51.675781 63.878906 C 51.109375 64.601562 50.660156 65.394531 50.328125 66.253906 C 49.996094 67.113281 49.796875 68.003906 49.730469 68.921875 L 68.265625 68.921875 C 68.199219 68.003906 68 67.113281 67.667969 66.253906 C 67.335938 65.394531 66.886719 64.601562 66.320312 63.878906 C 65.753906 63.152344 65.089844 62.523438 64.335938 61.992188 C 63.582031 61.460938 62.765625 61.050781 61.886719 60.761719 Z M 61.886719 60.761719 " fill-opacity="1" fill-rule="nonzero"/></g></svg>