<svg xmlns="http://www.w3.org/2000/svg" xmlns:xlink="http://www.w3.org/1999/xlink" width="100" zoomAndPan="magnify" viewBox="0 0 75 74.999997" height="100" preserveAspectRatio="xMidYMid meet" version="1.0"><defs><clipPath id="58ed835e16"><path d="M 26 7.902344 L 46 7.902344 L 46 27 L 26 27 Z M 26 7.902344 " clip-rule="nonzero"/></clipPath><clipPath id="4e48026062"><path d="M 22.066406 18.773438 L 70.550781 18.773438 L 70.550781 67.152344 L 22.066406 67.152344 Z M 22.066406 18.773438 " clip-rule="nonzero"/></clipPath><clipPath id="c38699441f"><path d="M 62.058594 63.25 L 63.460938 63.25 L 63.460938 67.152344 L 62.058594 67.152344 Z M 62.058594 63.25 " clip-rule="nonzero"/></clipPath><clipPath id="d2f110fff7"><path d="M 55 62.179688 L 56.367188 62.179688 L 56.367188 67.152344 L 55 67.152344 Z M 55 62.179688 " clip-rule="nonzero"/></clipPath><clipPath id="94081b87a0"><path d="M 47.875 63.25 L 49.277344 63.25 L 49.277344 67.152344 L 47.875 67.152344 Z M 47.875 63.25 " clip-rule="nonzero"/></clipPath><clipPath id="fe53637d52"><path d="M 40.785156 62.179688 L 42.1875 62.179688 L 42.1875 67.152344 L 40.785156 67.152344 Z M 40.785156 62.179688 " clip-rule="nonzero"/></clipPath><clipPath id="643265aca5"><path d="M 33.695312 63.25 L 35.097656 63.25 L 35.097656 67.152344 L 33.695312 67.152344 Z M 33.695312 63.25 " clip-rule="nonzero"/></clipPath><clipPath id="cd4748f0ed"><path d="M 8.050781 63.414062 L 10.113281 63.414062 L 10.113281 67.152344 L 8.050781 67.152344 Z M 8.050781 63.414062 " clip-rule="nonzero"/></clipPath><clipPath id="4aa4b4c44a"><path d="M 4.585938 65.804688 L 17.617188 65.804688 L 17.617188 67.152344 L 4.585938 67.152344 Z M 4.585938 65.804688 " clip-rule="nonzero"/></clipPath></defs><rect x="-7.5" width="90" fill="#ffffff" y="-7.5" height="89.999996" fill-opacity="1"/><rect x="-7.5" width="90" fill="#e4067e" y="-7.5" height="89.999996" fill-opacity="1"/><path stroke-linecap="butt" transform="matrix(0, 0.75, -0.75, 0, 1.125001, -0.000001)" fill="none" stroke-linejoin="miter" d="M 0.00000133333 1.500002 L 100.00001 1.500002 " stroke="#000000" stroke-width="3" stroke-opacity="1" stroke-miterlimit="4"/><path stroke-linecap="butt" transform="matrix(0.75, 0, 0, 0.75, 0.0000015, -1.125001)" fill="none" stroke-linejoin="miter" d="M -0.000002 1.500001 L 100.000006 1.500001 " stroke="#000000" stroke-width="3" stroke-opacity="1" stroke-miterlimit="4"/><path stroke-linecap="butt" transform="matrix(0, 0.75, -0.75, 0, 76.124995, -0.000001)" fill="none" stroke-linejoin="miter" d="M 0.00000133333 1.499994 L 100.00001 1.499994 " stroke="#000000" stroke-width="3" stroke-opacity="1" stroke-miterlimit="4"/><path stroke-linecap="butt" transform="matrix(-0.75, 0, 0, -0.75, 74.999995, 76.124993)" fill="none" stroke-linejoin="miter" d="M -0.00000616667 1.49999 L 100.000002 1.49999 " stroke="#000000" stroke-width="3" stroke-opacity="1" stroke-miterlimit="4"/><path fill="#1e1e1e" d="M 37.199219 40.074219 L 39.046875 41.925781 L 61.75 19.25 L 59.898438 17.402344 Z M 39.046875 43.519531 C 38.875 43.519531 38.703125 43.449219 38.582031 43.324219 L 35.792969 40.542969 C 35.535156 40.285156 35.535156 39.867188 35.792969 39.609375 L 59.429688 16 C 59.6875 15.742188 60.105469 15.742188 60.367188 16 L 63.152344 18.78125 C 63.277344 18.90625 63.34375 19.074219 63.34375 19.25 C 63.34375 19.425781 63.277344 19.59375 63.152344 19.71875 L 39.515625 43.324219 C 39.390625 43.449219 39.222656 43.519531 39.046875 43.519531 " fill-opacity="1" fill-rule="nonzero"/><path fill="#1e1e1e" d="M 33.523438 46.257812 C 33.351562 46.257812 33.183594 46.191406 33.054688 46.0625 C 32.855469 45.863281 32.804688 45.554688 32.929688 45.300781 L 35.667969 39.78125 C 35.832031 39.457031 36.230469 39.320312 36.554688 39.484375 C 36.882812 39.644531 37.015625 40.042969 36.855469 40.371094 L 34.988281 44.132812 L 38.753906 42.265625 C 39.082031 42.105469 39.480469 42.238281 39.640625 42.566406 C 39.804688 42.890625 39.671875 43.289062 39.34375 43.449219 L 33.816406 46.1875 C 33.722656 46.234375 33.621094 46.257812 33.523438 46.257812 " fill-opacity="1" fill-rule="nonzero"/><path fill="#1e1e1e" d="M 60.832031 16.46875 L 62.683594 18.316406 L 64.078125 16.921875 C 64.15625 16.84375 64.167969 16.753906 64.167969 16.703125 C 64.167969 16.65625 64.15625 16.5625 64.078125 16.484375 L 62.667969 15.074219 C 62.585938 14.996094 62.496094 14.984375 62.445312 14.984375 C 62.398438 14.984375 62.308594 14.996094 62.226562 15.074219 Z M 62.683594 19.910156 C 62.507812 19.910156 62.339844 19.839844 62.214844 19.71875 L 59.429688 16.933594 C 59.171875 16.675781 59.171875 16.257812 59.429688 16 L 61.292969 14.140625 C 61.601562 13.832031 62.011719 13.664062 62.445312 13.664062 C 62.882812 13.664062 63.292969 13.832031 63.601562 14.140625 L 65.011719 15.550781 C 65.320312 15.859375 65.492188 16.269531 65.492188 16.703125 C 65.492188 17.140625 65.320312 17.550781 65.011719 17.859375 L 63.152344 19.71875 C 63.027344 19.839844 62.859375 19.910156 62.683594 19.910156 " fill-opacity="1" fill-rule="nonzero"/><path fill="#1e1e1e" d="M 32.804688 46.972656 C 32.636719 46.972656 32.46875 46.90625 32.335938 46.777344 C 32.078125 46.519531 32.078125 46.101562 32.335938 45.84375 L 33.054688 45.128906 C 33.3125 44.871094 33.730469 44.871094 33.988281 45.128906 C 34.25 45.386719 34.25 45.804688 33.988281 46.0625 L 33.273438 46.777344 C 33.144531 46.90625 32.976562 46.972656 32.804688 46.972656 " fill-opacity="1" fill-rule="nonzero"/><g clip-path="url(#58ed835e16)"><path fill="#1e1e1e" d="M 35.292969 25.445312 L 37.042969 25.445312 L 37.226562 24.273438 C 37.269531 24.007812 37.464844 23.796875 37.722656 23.730469 C 38.386719 23.570312 39.015625 23.3125 39.59375 22.960938 C 39.824219 22.820312 40.113281 22.832031 40.328125 22.988281 L 41.289062 23.6875 L 42.527344 22.453125 L 41.828125 21.492188 C 41.667969 21.277344 41.65625 20.988281 41.796875 20.761719 C 42.148438 20.183594 42.410156 19.554688 42.570312 18.890625 C 42.632812 18.632812 42.847656 18.433594 43.109375 18.394531 L 44.289062 18.210938 L 44.289062 16.460938 L 43.109375 16.277344 C 42.847656 16.238281 42.632812 16.039062 42.570312 15.78125 C 42.410156 15.121094 42.148438 14.492188 41.796875 13.914062 C 41.65625 13.683594 41.667969 13.394531 41.828125 13.179688 L 42.527344 12.21875 L 41.289062 10.984375 L 40.328125 11.683594 C 40.113281 11.839844 39.824219 11.851562 39.59375 11.714844 C 39.015625 11.359375 38.386719 11.101562 37.722656 10.941406 C 37.464844 10.878906 37.269531 10.664062 37.226562 10.402344 L 37.042969 9.226562 L 35.292969 9.226562 L 35.109375 10.402344 C 35.066406 10.664062 34.871094 10.878906 34.609375 10.941406 C 33.949219 11.101562 33.316406 11.359375 32.738281 11.714844 C 32.511719 11.851562 32.222656 11.839844 32.003906 11.683594 L 31.042969 10.984375 L 29.808594 12.21875 L 30.507812 13.179688 C 30.664062 13.394531 30.675781 13.683594 30.539062 13.914062 C 30.183594 14.488281 29.925781 15.117188 29.765625 15.78125 C 29.703125 16.039062 29.488281 16.238281 29.222656 16.277344 L 28.046875 16.460938 L 28.046875 18.210938 L 29.222656 18.394531 C 29.488281 18.433594 29.703125 18.632812 29.765625 18.890625 C 29.925781 19.554688 30.183594 20.183594 30.539062 20.761719 C 30.675781 20.988281 30.664062 21.277344 30.507812 21.492188 L 29.808594 22.453125 L 31.042969 23.6875 L 32.003906 22.988281 C 32.222656 22.832031 32.511719 22.820312 32.738281 22.960938 C 33.316406 23.3125 33.949219 23.570312 34.609375 23.730469 C 34.871094 23.796875 35.066406 24.007812 35.109375 24.273438 Z M 37.609375 26.769531 L 34.726562 26.769531 C 34.402344 26.769531 34.125 26.53125 34.074219 26.210938 L 33.867188 24.898438 C 33.371094 24.75 32.894531 24.550781 32.4375 24.308594 L 31.367188 25.089844 C 31.101562 25.28125 30.738281 25.253906 30.507812 25.023438 L 28.472656 22.988281 C 28.242188 22.757812 28.210938 22.394531 28.40625 22.132812 L 29.1875 21.058594 C 28.945312 20.605469 28.746094 20.128906 28.597656 19.632812 L 27.285156 19.425781 C 26.960938 19.378906 26.722656 19.101562 26.722656 18.773438 L 26.722656 15.898438 C 26.722656 15.570312 26.960938 15.296875 27.285156 15.246094 L 28.597656 15.039062 C 28.746094 14.542969 28.945312 14.066406 29.1875 13.613281 L 28.40625 12.539062 C 28.210938 12.277344 28.242188 11.914062 28.472656 11.683594 L 30.507812 9.648438 C 30.738281 9.417969 31.101562 9.390625 31.367188 9.582031 L 32.4375 10.363281 C 32.894531 10.121094 33.371094 9.921875 33.867188 9.773438 L 34.074219 8.460938 C 34.125 8.140625 34.402344 7.902344 34.726562 7.902344 L 37.609375 7.902344 C 37.933594 7.902344 38.210938 8.140625 38.261719 8.460938 L 38.46875 9.773438 C 38.960938 9.921875 39.441406 10.121094 39.894531 10.363281 L 40.96875 9.582031 C 41.230469 9.390625 41.597656 9.417969 41.824219 9.648438 L 43.863281 11.683594 C 44.09375 11.914062 44.121094 12.277344 43.929688 12.539062 L 43.148438 13.613281 C 43.390625 14.066406 43.589844 14.542969 43.738281 15.039062 L 45.050781 15.246094 C 45.375 15.296875 45.609375 15.570312 45.609375 15.898438 L 45.609375 18.773438 C 45.609375 19.101562 45.375 19.378906 45.050781 19.425781 L 43.738281 19.632812 C 43.589844 20.128906 43.390625 20.605469 43.148438 21.058594 L 43.929688 22.132812 C 44.121094 22.394531 44.09375 22.757812 43.863281 22.988281 L 41.824219 25.023438 C 41.597656 25.253906 41.230469 25.28125 40.96875 25.089844 L 39.894531 24.308594 C 39.441406 24.550781 38.960938 24.75 38.46875 24.898438 L 38.261719 26.210938 C 38.210938 26.53125 37.933594 26.769531 37.609375 26.769531 " fill-opacity="1" fill-rule="nonzero"/></g><path fill="#1e1e1e" d="M 36.167969 14.679688 C 34.703125 14.679688 33.507812 15.871094 33.507812 17.335938 C 33.507812 18.800781 34.703125 19.992188 36.167969 19.992188 C 37.632812 19.992188 38.824219 18.800781 38.824219 17.335938 C 38.824219 15.871094 37.632812 14.679688 36.167969 14.679688 Z M 36.167969 21.3125 C 33.972656 21.3125 32.183594 19.53125 32.183594 17.335938 C 32.183594 15.144531 33.972656 13.359375 36.167969 13.359375 C 38.363281 13.359375 40.148438 15.144531 40.148438 17.335938 C 40.148438 19.53125 38.363281 21.3125 36.167969 21.3125 " fill-opacity="1" fill-rule="nonzero"/><g clip-path="url(#4e48026062)"><path fill="#1e1e1e" d="M 24.390625 65.835938 L 69.226562 65.835938 L 69.226562 21.046875 Z M 69.890625 67.15625 L 22.792969 67.15625 C 22.523438 67.15625 22.285156 66.996094 22.179688 66.75 C 22.078125 66.5 22.136719 66.21875 22.324219 66.027344 L 69.421875 18.984375 C 69.609375 18.796875 69.894531 18.738281 70.144531 18.839844 C 70.390625 18.945312 70.550781 19.183594 70.550781 19.453125 L 70.550781 66.496094 C 70.550781 66.859375 70.253906 67.15625 69.890625 67.15625 " fill-opacity="1" fill-rule="nonzero"/></g><path fill="#1e1e1e" d="M 66.675781 55.6875 C 66.3125 55.6875 66.015625 55.390625 66.015625 55.027344 L 66.015625 53.453125 C 66.015625 53.089844 66.3125 52.792969 66.675781 52.792969 C 67.042969 52.792969 67.339844 53.089844 67.339844 53.453125 L 67.339844 55.027344 C 67.339844 55.390625 67.042969 55.6875 66.675781 55.6875 " fill-opacity="1" fill-rule="nonzero"/><path fill="#1e1e1e" d="M 66.675781 51.03125 C 66.3125 51.03125 66.015625 50.734375 66.015625 50.367188 L 66.015625 34.511719 C 66.015625 34.144531 66.3125 33.851562 66.675781 33.851562 C 67.042969 33.851562 67.339844 34.144531 67.339844 34.511719 L 67.339844 50.367188 C 67.339844 50.734375 67.042969 51.03125 66.675781 51.03125 " fill-opacity="1" fill-rule="nonzero"/><path fill="#1e1e1e" d="M 44.265625 57.609375 L 60.992188 57.609375 L 60.992188 40.902344 Z M 61.65625 58.933594 L 42.671875 58.933594 C 42.402344 58.933594 42.160156 58.769531 42.058594 58.523438 C 41.957031 58.277344 42.011719 57.992188 42.203125 57.804688 L 61.1875 38.839844 C 61.375 38.652344 61.660156 38.59375 61.910156 38.695312 C 62.15625 38.800781 62.316406 39.039062 62.316406 39.308594 L 62.316406 58.269531 C 62.316406 58.636719 62.019531 58.933594 61.65625 58.933594 " fill-opacity="1" fill-rule="nonzero"/><g clip-path="url(#c38699441f)"><path fill="#1e1e1e" d="M 62.792969 67.15625 C 62.425781 67.15625 62.128906 66.859375 62.128906 66.496094 L 62.128906 63.972656 C 62.128906 63.609375 62.425781 63.3125 62.792969 63.3125 C 63.15625 63.3125 63.453125 63.609375 63.453125 63.972656 L 63.453125 66.496094 C 63.453125 66.859375 63.15625 67.15625 62.792969 67.15625 " fill-opacity="1" fill-rule="nonzero"/></g><g clip-path="url(#d2f110fff7)"><path fill="#1e1e1e" d="M 55.691406 67.15625 C 55.328125 67.15625 55.03125 66.859375 55.03125 66.496094 L 55.03125 62.839844 C 55.03125 62.476562 55.328125 62.179688 55.691406 62.179688 C 56.058594 62.179688 56.355469 62.476562 56.355469 62.839844 L 56.355469 66.496094 C 56.355469 66.859375 56.058594 67.15625 55.691406 67.15625 " fill-opacity="1" fill-rule="nonzero"/></g><g clip-path="url(#94081b87a0)"><path fill="#1e1e1e" d="M 48.59375 67.15625 C 48.230469 67.15625 47.933594 66.859375 47.933594 66.496094 L 47.933594 63.972656 C 47.933594 63.609375 48.230469 63.3125 48.59375 63.3125 C 48.960938 63.3125 49.257812 63.609375 49.257812 63.972656 L 49.257812 66.496094 C 49.257812 66.859375 48.960938 67.15625 48.59375 67.15625 " fill-opacity="1" fill-rule="nonzero"/></g><g clip-path="url(#fe53637d52)"><path fill="#1e1e1e" d="M 41.496094 67.15625 C 41.132812 67.15625 40.835938 66.859375 40.835938 66.496094 L 40.835938 62.839844 C 40.835938 62.476562 41.132812 62.179688 41.496094 62.179688 C 41.863281 62.179688 42.15625 62.476562 42.15625 62.839844 L 42.15625 66.496094 C 42.15625 66.859375 41.863281 67.15625 41.496094 67.15625 " fill-opacity="1" fill-rule="nonzero"/></g><g clip-path="url(#643265aca5)"><path fill="#1e1e1e" d="M 34.398438 67.15625 C 34.03125 67.15625 33.738281 66.859375 33.738281 66.496094 L 33.738281 63.972656 C 33.738281 63.609375 34.03125 63.3125 34.398438 63.3125 C 34.765625 63.3125 35.058594 63.609375 35.058594 63.972656 L 35.058594 66.496094 C 35.058594 66.859375 34.765625 67.15625 34.398438 67.15625 " fill-opacity="1" fill-rule="nonzero"/></g><path fill="#1e1e1e" d="M 9.378906 64.742188 C 9.320312 64.742188 9.261719 64.734375 9.207031 64.71875 L 9.023438 64.671875 C 8.132812 64.433594 7.386719 63.859375 6.921875 63.058594 C 6.460938 62.257812 6.339844 61.328125 6.578125 60.4375 L 14.285156 31.699219 C 14.378906 31.347656 14.742188 31.136719 15.097656 31.230469 C 15.449219 31.328125 15.660156 31.6875 15.5625 32.042969 L 7.855469 60.78125 C 7.707031 61.328125 7.785156 61.90625 8.070312 62.398438 C 8.273438 62.753906 8.570312 63.035156 8.925781 63.222656 L 15.734375 37.839844 C 15.828125 37.488281 16.191406 37.277344 16.542969 37.371094 C 16.894531 37.464844 17.105469 37.828125 17.011719 38.179688 L 10.015625 64.253906 C 9.972656 64.421875 9.859375 64.566406 9.707031 64.652344 C 9.605469 64.710938 9.492188 64.742188 9.378906 64.742188 " fill-opacity="1" fill-rule="nonzero"/><g clip-path="url(#cd4748f0ed)"><path fill="#1e1e1e" d="M 8.730469 67.15625 C 8.675781 67.15625 8.617188 67.148438 8.558594 67.132812 C 8.207031 67.039062 7.996094 66.675781 8.089844 66.324219 L 8.738281 63.910156 C 8.832031 63.558594 9.195312 63.347656 9.550781 63.445312 C 9.902344 63.539062 10.113281 63.898438 10.015625 64.253906 L 9.371094 66.667969 C 9.289062 66.960938 9.023438 67.15625 8.730469 67.15625 " fill-opacity="1" fill-rule="nonzero"/></g><path fill="#1e1e1e" d="M 28.082031 57.867188 C 27.789062 57.867188 27.523438 57.671875 27.445312 57.375 L 20.648438 32.042969 C 20.554688 31.6875 20.761719 31.328125 21.117188 31.230469 C 21.46875 31.136719 21.832031 31.347656 21.925781 31.699219 L 28.722656 57.035156 C 28.816406 57.386719 28.609375 57.75 28.253906 57.84375 C 28.199219 57.859375 28.140625 57.867188 28.082031 57.867188 " fill-opacity="1" fill-rule="nonzero"/><path fill="#1e1e1e" d="M 25.644531 60.304688 C 25.351562 60.304688 25.085938 60.109375 25.003906 59.8125 L 18.441406 35.351562 C 18.347656 34.996094 18.558594 34.632812 18.910156 34.539062 C 19.261719 34.445312 19.625 34.65625 19.71875 35.007812 L 26.28125 59.472656 C 26.378906 59.824219 26.167969 60.1875 25.816406 60.28125 C 25.757812 60.296875 25.699219 60.304688 25.644531 60.304688 " fill-opacity="1" fill-rule="nonzero"/><path fill="#1e1e1e" d="M 16.949219 31.304688 C 16.773438 31.304688 16.605469 31.234375 16.480469 31.109375 C 16.355469 30.988281 16.285156 30.816406 16.285156 30.644531 C 16.285156 30.46875 16.355469 30.300781 16.480469 30.175781 C 16.726562 29.929688 17.167969 29.929688 17.417969 30.175781 C 17.539062 30.300781 17.609375 30.46875 17.609375 30.644531 C 17.609375 30.816406 17.539062 30.988281 17.417969 31.109375 C 17.292969 31.234375 17.121094 31.304688 16.949219 31.304688 " fill-opacity="1" fill-rule="nonzero"/><path fill="#1e1e1e" d="M 19.265625 31.304688 C 19.089844 31.304688 18.917969 31.234375 18.796875 31.109375 C 18.671875 30.988281 18.601562 30.816406 18.601562 30.644531 C 18.601562 30.46875 18.671875 30.300781 18.796875 30.175781 C 19.042969 29.929688 19.484375 29.929688 19.730469 30.175781 C 19.855469 30.300781 19.925781 30.46875 19.925781 30.644531 C 19.925781 30.816406 19.855469 30.988281 19.730469 31.109375 C 19.609375 31.234375 19.4375 31.304688 19.265625 31.304688 " fill-opacity="1" fill-rule="nonzero"/><path fill="#1e1e1e" d="M 15.902344 26.769531 C 15.726562 26.769531 15.585938 26.910156 15.585938 27.082031 L 15.585938 34.203125 C 15.585938 34.375 15.726562 34.519531 15.902344 34.519531 L 20.3125 34.519531 C 20.484375 34.519531 20.625 34.375 20.625 34.203125 L 20.625 27.082031 C 20.625 26.910156 20.484375 26.769531 20.3125 26.769531 Z M 20.3125 35.839844 L 15.902344 35.839844 C 15 35.839844 14.261719 35.105469 14.261719 34.203125 L 14.261719 27.082031 C 14.261719 26.179688 15 25.445312 15.902344 25.445312 L 20.3125 25.445312 C 21.214844 25.445312 21.949219 26.179688 21.949219 27.082031 L 21.949219 34.203125 C 21.949219 35.105469 21.214844 35.839844 20.3125 35.839844 " fill-opacity="1" fill-rule="nonzero"/><path fill="#1e1e1e" d="M 10.34375 49.601562 L 7.308594 49.601562 C 6.941406 49.601562 6.648438 49.308594 6.648438 48.941406 C 6.648438 48.578125 6.941406 48.28125 7.308594 48.28125 L 10.34375 48.28125 C 10.710938 48.28125 11.007812 48.578125 11.007812 48.941406 C 11.007812 49.308594 10.710938 49.601562 10.34375 49.601562 " fill-opacity="1" fill-rule="nonzero"/><path fill="#1e1e1e" d="M 22.773438 49.601562 L 13.4375 49.601562 C 13.074219 49.601562 12.777344 49.308594 12.777344 48.941406 C 12.777344 48.578125 13.074219 48.28125 13.4375 48.28125 L 22.773438 48.28125 C 23.140625 48.28125 23.433594 48.578125 23.433594 48.941406 C 23.433594 49.308594 23.140625 49.601562 22.773438 49.601562 " fill-opacity="1" fill-rule="nonzero"/><path fill="#1e1e1e" d="M 28.90625 49.601562 L 25.867188 49.601562 C 25.5 49.601562 25.207031 49.308594 25.207031 48.941406 C 25.207031 48.578125 25.5 48.28125 25.867188 48.28125 L 28.90625 48.28125 C 29.269531 48.28125 29.566406 48.578125 29.566406 48.941406 C 29.566406 49.308594 29.269531 49.601562 28.90625 49.601562 " fill-opacity="1" fill-rule="nonzero"/><path fill="#1e1e1e" d="M 18.105469 50.785156 C 17.742188 50.785156 17.445312 50.488281 17.445312 50.125 L 17.445312 47.621094 C 17.445312 47.257812 17.742188 46.960938 18.105469 46.960938 C 18.472656 46.960938 18.769531 47.257812 18.769531 47.621094 L 18.769531 50.125 C 18.769531 50.488281 18.472656 50.785156 18.105469 50.785156 " fill-opacity="1" fill-rule="nonzero"/><path fill="#1e1e1e" d="M 17.140625 25.445312 L 19.074219 25.445312 L 19.074219 19.503906 L 17.140625 19.503906 Z M 19.734375 26.769531 L 16.476562 26.769531 C 16.113281 26.769531 15.816406 26.472656 15.816406 26.109375 L 15.816406 19.210938 C 15.816406 18.644531 16.277344 18.183594 16.84375 18.183594 L 19.367188 18.183594 C 19.933594 18.183594 20.398438 18.644531 20.398438 19.210938 L 20.398438 26.109375 C 20.398438 26.472656 20.101562 26.769531 19.734375 26.769531 " fill-opacity="1" fill-rule="nonzero"/><path fill="#1e1e1e" d="M 19.734375 22.472656 L 16.476562 22.472656 C 16.113281 22.472656 15.816406 22.179688 15.816406 21.8125 C 15.816406 21.449219 16.113281 21.152344 16.476562 21.152344 L 19.734375 21.152344 C 20.101562 21.152344 20.398438 21.449219 20.398438 21.8125 C 20.398438 22.179688 20.101562 22.472656 19.734375 22.472656 " fill-opacity="1" fill-rule="nonzero"/><g clip-path="url(#4aa4b4c44a)"><path fill="#1e1e1e" d="M 16.949219 67.15625 L 5.25 67.15625 C 4.882812 67.15625 4.585938 66.859375 4.585938 66.496094 C 4.585938 66.128906 4.882812 65.835938 5.25 65.835938 L 16.949219 65.835938 C 17.3125 65.835938 17.609375 66.128906 17.609375 66.496094 C 17.609375 66.859375 17.3125 67.15625 16.949219 67.15625 " fill-opacity="1" fill-rule="nonzero"/></g></svg>