<svg xmlns="http://www.w3.org/2000/svg" xmlns:xlink="http://www.w3.org/1999/xlink" width="100" zoomAndPan="magnify" viewBox="0 0 75 74.999997" height="100" preserveAspectRatio="xMidYMid meet" version="1.0"><defs><clipPath id="8b77e04703"><path d="M 4.761719 59 L 70 59 L 70 61 L 4.761719 61 Z M 4.761719 59 " clip-rule="nonzero"/></clipPath><clipPath id="28d0c19c6c"><path d="M 4.761719 63 L 70 63 L 70 64.65625 L 4.761719 64.65625 Z M 4.761719 63 " clip-rule="nonzero"/></clipPath><clipPath id="27618818bb"><path d="M 12 10.65625 L 37 10.65625 L 37 36 L 12 36 Z M 12 10.65625 " clip-rule="nonzero"/></clipPath></defs><rect x="-7.5" width="90" fill="#ffffff" y="-7.5" height="89.999996" fill-opacity="1"/><rect x="-7.5" width="90" fill="#4dbed2" y="-7.5" height="89.999996" fill-opacity="1"/><path stroke-linecap="butt" transform="matrix(0, 0.75, -0.75, 0, 1.125001, -0.000001)" fill="none" stroke-linejoin="miter" d="M 0.00000133333 1.500002 L 100.00001 1.500002 " stroke="#000000" stroke-width="3" stroke-opacity="1" stroke-miterlimit="4"/><path stroke-linecap="butt" transform="matrix(0.75, 0, 0, 0.75, 0.0000015, -1.125001)" fill="none" stroke-linejoin="miter" d="M -0.000002 1.500001 L 100.000006 1.500001 " stroke="#000000" stroke-width="3" stroke-opacity="1" stroke-miterlimit="4"/><path stroke-linecap="butt" transform="matrix(0, 0.75, -0.75, 0, 76.124995, -0.000001)" fill="none" stroke-linejoin="miter" d="M 0.00000133333 1.499994 L 100.00001 1.499994 " stroke="#000000" stroke-width="3" stroke-opacity="1" stroke-miterlimit="4"/><path stroke-linecap="butt" transform="matrix(-0.75, 0, 0, -0.75, 74.999995, 76.124993)" fill="none" stroke-linejoin="miter" d="M -0.00000616667 1.49999 L 100.000002 1.49999 " stroke="#000000" stroke-width="3" stroke-opacity="1" stroke-miterlimit="4"/><g clip-path="url(#8b77e04703)"><path fill="#000000" d="M 69.234375 60.925781 L 5.539062 60.925781 C 5.160156 60.925781 4.777344 60.667969 4.777344 60.15625 C 4.777344 59.769531 5.160156 59.382812 5.539062 59.382812 L 69.234375 59.382812 C 69.613281 59.382812 69.996094 59.769531 69.996094 60.15625 C 69.996094 60.667969 69.613281 60.925781 69.234375 60.925781 Z M 69.234375 60.925781 " fill-opacity="1" fill-rule="evenodd"/></g><g clip-path="url(#28d0c19c6c)"><path fill="#000000" d="M 69.234375 64.65625 L 5.539062 64.65625 C 5.160156 64.65625 4.777344 64.269531 4.777344 63.882812 C 4.777344 63.367188 5.160156 63.113281 5.539062 63.113281 L 69.234375 63.113281 C 69.613281 63.113281 69.996094 63.367188 69.996094 63.882812 C 69.996094 64.269531 69.613281 64.65625 69.234375 64.65625 Z M 69.234375 64.65625 " fill-opacity="1" fill-rule="evenodd"/></g><path fill="#000000" d="M 59.804688 31.996094 C 59.425781 31.996094 59.042969 31.742188 59.042969 31.484375 C 58.277344 28.398438 55.984375 25.699219 53.691406 25.183594 C 52.289062 24.925781 51.015625 25.441406 49.996094 26.855469 C 49.742188 27.113281 49.359375 27.242188 49.105469 27.113281 C 48.722656 26.984375 48.597656 26.726562 48.597656 26.46875 L 48.597656 25.699219 C 47.578125 26.597656 46.304688 28.269531 46.429688 31.226562 C 46.429688 31.613281 46.175781 31.996094 45.667969 31.996094 C 45.285156 31.996094 44.902344 31.742188 44.902344 31.226562 C 44.902344 30.582031 44.902344 29.941406 45.03125 29.425781 L 45.285156 24.667969 L 44.648438 24.667969 C 44.265625 24.667969 44.011719 24.539062 43.882812 24.28125 C 43.757812 24.027344 43.757812 23.769531 43.882812 23.511719 C 45.15625 21.324219 46.8125 20.039062 48.722656 19.527344 C 51.144531 19.011719 53.308594 20.039062 54.074219 20.554688 C 54.839844 20.425781 56.621094 20.039062 58.148438 21.070312 C 59.425781 21.839844 60.1875 23.253906 60.441406 25.183594 L 60.570312 31.226562 C 60.570312 31.613281 60.316406 31.867188 59.933594 31.996094 C 59.804688 31.996094 59.804688 31.996094 59.804688 31.996094 Z M 59.804688 31.996094 " fill-opacity="1" fill-rule="evenodd"/><path fill="#000000" d="M 52.800781 42.28125 C 49.488281 42.28125 46.429688 39.96875 45.410156 36.753906 L 45.15625 36.753906 C 44.773438 36.753906 44.394531 36.496094 44.394531 35.984375 L 44.394531 33.28125 C 44.394531 32.898438 44.648438 32.640625 45.03125 32.511719 L 45.03125 31.613281 C 45.03125 31.226562 45.285156 30.96875 45.667969 30.839844 C 45.921875 28.527344 47.195312 20.683594 50.761719 22.996094 C 53.4375 24.667969 55.21875 24.667969 56.367188 24.667969 C 56.875 24.667969 57.257812 24.667969 57.511719 24.925781 C 57.769531 25.3125 58.277344 26.082031 58.53125 26.46875 C 58.660156 26.726562 58.660156 26.855469 58.789062 26.855469 C 58.789062 26.984375 59.425781 29.683594 59.679688 30.96875 C 59.679688 30.839844 59.804688 30.839844 59.933594 30.839844 C 60.316406 30.839844 60.699219 31.226562 60.699219 31.613281 L 60.699219 32.511719 C 61.078125 32.640625 61.335938 32.898438 61.335938 33.28125 L 61.335938 35.984375 C 61.335938 36.496094 60.953125 36.753906 60.570312 36.753906 L 60.316406 36.753906 C 59.296875 39.96875 56.238281 42.28125 52.800781 42.28125 Z M 52.800781 42.28125 " fill-opacity="1" fill-rule="evenodd"/><path fill="#000000" d="M 64.773438 60.925781 L 40.316406 60.925781 C 39.425781 60.925781 38.53125 60.15625 38.53125 59.253906 L 38.53125 52.054688 C 38.53125 47.167969 42.609375 43.183594 47.449219 43.183594 L 51.910156 54.242188 C 51.910156 54.625 52.289062 54.753906 52.546875 54.753906 C 52.925781 54.753906 53.183594 54.625 53.308594 54.367188 L 58.023438 43.183594 C 62.734375 43.3125 66.558594 47.296875 66.558594 52.054688 L 66.558594 59.253906 C 66.558594 60.15625 65.792969 60.925781 64.773438 60.925781 Z M 49.105469 43.183594 L 56.367188 43.183594 L 52.546875 52.054688 Z M 49.105469 43.183594 " fill-opacity="1" fill-rule="evenodd"/><path fill="#000000" d="M 60.441406 60.925781 C 60.0625 60.925781 59.679688 60.667969 59.679688 60.15625 L 59.679688 53.339844 C 59.679688 52.953125 60.0625 52.570312 60.441406 52.570312 C 60.953125 52.570312 61.207031 52.953125 61.207031 53.339844 L 61.207031 60.15625 C 61.207031 60.667969 60.953125 60.925781 60.441406 60.925781 Z M 44.648438 60.925781 C 44.265625 60.925781 43.882812 60.667969 43.882812 60.15625 L 43.882812 53.339844 C 43.882812 52.953125 44.265625 52.570312 44.648438 52.570312 C 45.03125 52.570312 45.410156 52.953125 45.410156 53.339844 L 45.410156 60.15625 C 45.410156 60.667969 45.03125 60.925781 44.648438 60.925781 Z M 44.648438 60.925781 " fill-opacity="1" fill-rule="evenodd"/><path fill="#000000" d="M 33.054688 55.65625 L 8.851562 55.65625 C 8.089844 55.65625 7.453125 55.011719 7.453125 54.242188 L 7.453125 37.65625 C 7.453125 36.882812 8.089844 36.242188 8.851562 36.242188 L 33.054688 36.242188 C 33.820312 36.242188 34.457031 36.882812 34.457031 37.65625 L 34.457031 54.242188 C 34.457031 55.011719 33.820312 55.65625 33.054688 55.65625 Z M 32.929688 52.3125 L 8.980469 52.3125 L 8.980469 37.78125 L 32.929688 37.78125 Z M 18.789062 54.113281 L 23.121094 54.113281 Z M 18.789062 54.113281 " fill-opacity="1" fill-rule="evenodd"/><path fill="#000000" d="M 23.121094 58.742188 L 18.789062 58.742188 C 18.40625 58.742188 18.023438 58.355469 18.023438 57.96875 L 18.023438 54.882812 C 18.023438 54.496094 18.40625 54.113281 18.789062 54.113281 L 23.121094 54.113281 C 23.5 54.113281 23.882812 54.496094 23.882812 54.882812 L 23.882812 57.96875 C 23.882812 58.355469 23.5 58.742188 23.121094 58.742188 Z M 23.121094 58.742188 " fill-opacity="1" fill-rule="evenodd"/><path fill="#000000" d="M 26.6875 60.539062 L 15.222656 60.539062 C 14.839844 60.539062 14.457031 60.28125 14.457031 59.769531 L 14.457031 58.742188 C 14.457031 57.710938 15.347656 56.8125 16.367188 56.8125 L 25.539062 56.8125 C 26.6875 56.8125 27.449219 57.710938 27.449219 58.742188 L 27.449219 59.769531 C 27.449219 60.28125 27.070312 60.539062 26.6875 60.539062 Z M 26.6875 60.539062 " fill-opacity="1" fill-rule="evenodd"/><g clip-path="url(#27618818bb)"><path fill="#000000" d="M 25.539062 35.082031 L 23.882812 35.082031 C 23.246094 35.082031 22.609375 34.570312 22.609375 33.796875 L 22.484375 31.742188 C 21.589844 31.613281 20.828125 31.226562 20.191406 30.839844 L 18.535156 32.125 C 18.277344 32.382812 18.023438 32.511719 17.640625 32.511719 C 17.386719 32.511719 17.003906 32.382812 16.75 32.125 L 15.605469 30.96875 C 15.09375 30.453125 15.09375 29.683594 15.605469 29.039062 L 16.878906 27.496094 C 16.496094 26.855469 16.113281 25.953125 15.984375 25.183594 L 13.949219 25.054688 C 13.183594 24.925781 12.675781 24.410156 12.675781 23.769531 L 12.675781 22.097656 C 12.675781 21.324219 13.183594 20.8125 13.949219 20.683594 L 15.984375 20.554688 C 16.113281 19.78125 16.496094 19.011719 16.878906 18.242188 L 15.605469 16.699219 C 15.09375 16.183594 15.09375 15.410156 15.605469 14.898438 L 16.75 13.742188 C 17.003906 13.484375 17.386719 13.355469 17.640625 13.355469 C 18.023438 13.355469 18.277344 13.484375 18.535156 13.613281 L 20.191406 15.027344 C 20.828125 14.511719 21.589844 14.253906 22.484375 13.996094 L 22.609375 11.941406 C 22.609375 11.296875 23.246094 10.65625 23.882812 10.65625 L 25.539062 10.65625 C 26.175781 10.65625 26.8125 11.296875 26.8125 11.941406 L 27.070312 13.996094 C 27.832031 14.253906 28.597656 14.511719 29.363281 15.027344 L 30.890625 13.613281 C 31.144531 13.484375 31.398438 13.355469 31.78125 13.355469 C 32.164062 13.355469 32.417969 13.484375 32.671875 13.742188 L 33.820312 14.898438 C 34.328125 15.410156 34.328125 16.183594 33.820312 16.699219 L 32.546875 18.242188 C 33.054688 19.011719 33.308594 19.78125 33.566406 20.554688 L 35.476562 20.683594 C 36.242188 20.8125 36.75 21.324219 36.75 22.097656 L 36.75 23.769531 C 36.75 24.410156 36.242188 24.925781 35.476562 25.054688 L 33.566406 25.183594 C 33.308594 25.953125 33.054688 26.855469 32.546875 27.496094 L 33.820312 29.039062 C 34.328125 29.683594 34.328125 30.453125 33.820312 30.96875 L 32.671875 32.125 C 32.417969 32.382812 32.164062 32.511719 31.78125 32.511719 C 31.398438 32.511719 31.144531 32.382812 30.890625 32.125 L 29.363281 30.839844 C 28.597656 31.226562 27.832031 31.613281 27.070312 31.742188 L 26.8125 33.796875 C 26.8125 34.570312 26.175781 35.082031 25.539062 35.082031 Z M 24.777344 29.554688 C 21.082031 29.554688 18.152344 26.597656 18.152344 22.867188 C 18.152344 19.269531 21.082031 16.183594 24.777344 16.183594 C 28.34375 16.183594 31.273438 19.269531 31.273438 22.867188 C 31.273438 26.597656 28.34375 29.554688 24.777344 29.554688 Z M 24.777344 29.554688 " fill-opacity="1" fill-rule="evenodd"/></g><path fill="#000000" d="M 26.175781 42.15625 L 15.730469 42.15625 C 15.347656 42.15625 14.96875 41.898438 14.96875 41.382812 C 14.96875 40.996094 15.347656 40.613281 15.730469 40.613281 L 26.175781 40.613281 C 26.558594 40.613281 26.941406 40.996094 26.941406 41.382812 C 26.941406 41.898438 26.558594 42.15625 26.175781 42.15625 Z M 26.175781 42.15625 " fill-opacity="1" fill-rule="evenodd"/><path fill="#000000" d="M 26.175781 45.113281 L 15.730469 45.113281 C 15.347656 45.113281 14.96875 44.726562 14.96875 44.339844 C 14.96875 43.824219 15.347656 43.570312 15.730469 43.570312 L 26.175781 43.570312 C 26.558594 43.570312 26.941406 43.824219 26.941406 44.339844 C 26.941406 44.726562 26.558594 45.113281 26.175781 45.113281 Z M 26.175781 45.113281 " fill-opacity="1" fill-rule="evenodd"/><path fill="#000000" d="M 26.175781 47.941406 L 15.730469 47.941406 C 15.347656 47.941406 14.96875 47.554688 14.96875 47.167969 C 14.96875 46.78125 15.347656 46.398438 15.730469 46.398438 L 26.175781 46.398438 C 26.558594 46.398438 26.941406 46.78125 26.941406 47.167969 C 26.941406 47.554688 26.558594 47.941406 26.175781 47.941406 Z M 26.175781 47.941406 " fill-opacity="1" fill-rule="evenodd"/></svg>